<?xml version="1.0" encoding="iso-8859-1"?>
<!-- Generator: Adobe Illustrator 19.0.0, SVG Export Plug-In . SVG Version: 6.00 Build 0)  -->
<svg version="1.1" id="Capa_1" xmlns="http://www.w3.org/2000/svg" xmlns:xlink="http://www.w3.org/1999/xlink" x="0px" y="0px"
	 viewBox="0 0 512 512" style="enable-background:new 0 0 512 512;" xml:space="preserve">
<path style="fill:#4EC0AA;" d="M512,173.22v251.364c0,2.845-2.306,5.151-5.151,5.151H5.151c-2.845,0-5.151-2.306-5.151-5.151V87.421
	c0-2.845,2.306-5.151,5.151-5.151h501.698c2.845,0,5.151,2.306,5.151,5.151v37.38V173.22z"/>
<path style="fill:#40AD98;" d="M468.097,82.27h38.752c2.845,0,5.151,2.306,5.151,5.151v337.163c0,2.845-2.306,5.151-5.151,5.151
	h-38.752V82.27z"/>
<path style="fill:#D8362A;" d="M80.428,189.418h351.144c2.845,0,5.151,2.306,5.151,5.151V366.6c0,2.845-2.306,5.151-5.151,5.151
	H80.428c-2.845,0-5.151-2.306-5.151-5.151V194.569C75.277,191.724,77.583,189.418,80.428,189.418z"/>
<path style="fill:#B72020;" d="M395.438,189.418h36.134c2.845,0,5.151,2.306,5.151,5.151V366.6c0,2.845-2.306,5.151-5.151,5.151
	h-36.134V189.418z"/>
<rect x="75.28" y="238.09" style="fill:#FFFFFF;" width="361.45" height="84.986"/>
<g>
	<circle style="fill:#424A4C;" cx="340.14" cy="280.58" r="42.493"/>
	<circle style="fill:#424A4C;" cx="172.38" cy="280.58" r="42.493"/>
</g>
<path style="fill:#FFD15C;" d="M124.266,82.27L146,134.521c0.799,1.921,2.675,3.173,4.756,3.173H250.89h10.736H361.76
	c2.081,0,3.957-1.252,4.756-3.173L388.25,82.27H124.266z"/>
<path style="fill:#E8B44D;" d="M388.255,82.265l-21.736,52.251c-0.799,1.921-2.675,3.173-4.756,3.173h-45.559l23.055-55.424H388.255
	z"/>
<circle cx="28.33" cy="401.82" r="8.844"/>
<circle cx="28.33" cy="110.18" r="8.844"/>
<circle cx="483.67" cy="401.82" r="8.844"/>
<circle cx="483.67" cy="110.18" r="8.844"/>
<circle cx="340.14" cy="280.58" r="8.844"/>
<circle cx="172.38" cy="280.58" r="8.844"/>
<circle cx="338.89" cy="110.18" r="8.844"/>
<circle cx="173.62" cy="110.18" r="8.844"/>
<g>
</g>
<g>
</g>
<g>
</g>
<g>
</g>
<g>
</g>
<g>
</g>
<g>
</g>
<g>
</g>
<g>
</g>
<g>
</g>
<g>
</g>
<g>
</g>
<g>
</g>
<g>
</g>
<g>
</g>
</svg>
