<svg id="Layer_1" data-name="Layer 1" xmlns="http://www.w3.org/2000/svg" viewBox="0 0 601 250"><defs><style>.cls-1{fill:#00af9a;}.cls-2{fill:#fd0;}.cls-3{fill:#ff4438;}.cls-4{fill:#fff;}.cls-5{fill:#9164cc;}.cls-6{fill:#0075c9;}.cls-7{fill:#6bc4e8;}</style></defs><title>Artboard 1</title><path class="cls-1" d="M157.79,106.71l-1.77,0c-.85,0-1.69,0-2.54.06l-1.81.07-2.52.11-1.83.1c-.84,0-1.68.1-2.52.15l-1.82.13-2.55.2-1.79.15L136,108l-1.69.17-2.89.34-1.45.17c-1.38.18-2.75.37-4.13.57l-.29,0c-1.4.2-2.81.42-4.21.66l-1.51.26-2.8.5-1.78.35-1.95.39-.22.66c-.7,2.23-1.43,4.47-2.17,6.72-.05.14-.09.28-.14.42-.76,2.31-1.55,4.62-2.35,6.94-.15.44-.3.88-.46,1.33-.78,2.25-1.57,4.52-2.38,6.78l-.45,1.24c-.83,2.3-1.66,4.6-2.52,6.9a2.09,2.09,0,0,1-.08.23q-1.3,3.51-2.64,7L99.37,151c-.86,2.25-1.73,4.5-2.61,6.73l-.54,1.38q-1.36,3.45-2.75,6.89c0,.11-.09.23-.14.34Q92,169.7,90.6,173c-.17.42-.34.83-.52,1.25q-1.36,3.3-2.74,6.55c-.19.45-.39.9-.58,1.36q-1.41,3.32-2.83,6.59c-.08.18-.15.36-.23.53q-1.38,3.17-2.76,6.27l-.45,1c-.94,2.11-1.87,4.19-2.81,6.25-.18.41-.36.81-.55,1.22-.94,2.07-1.89,4.13-2.82,6.15l-.3.64q-1.37,2.93-2.71,5.77l-.36.77q-1.38,2.91-2.75,5.73c-.17.36-.34.72-.52,1.07Q66.32,227,65,229.69l-.11.21a226.75,226.75,0,0,1,45.49-36.45c36.26-22.45,99.1-48.4,192.79-44.92l7.2-10-.28-.11-.48-.21-.37-.16-.82-.35-.77-.32-.43-.18-.75-.31-.52-.22-.79-.32-.57-.23-.84-.34-.64-.26-.9-.36-.68-.26-1-.39-.71-.27-1.06-.42-.74-.28-1.16-.44-.74-.28-1.31-.49-.7-.26-1.5-.55-.61-.22c-1.45-.53-3-1.07-4.54-1.62l-.56-.19-1.84-.65-.8-.27-1.7-.58-.93-.3c-.54-.19-1.09-.37-1.65-.55l-1-.34-1.68-.55-1-.32-1.77-.57-1-.32-1.83-.57-1.07-.33-1.91-.58-1.05-.31-2.12-.63-.91-.26-2.55-.74-.57-.16c-2.12-.6-4.3-1.19-6.52-1.78l-.72-.19-2.59-.68-1.06-.27-2.33-.59-1.22-.3-2.25-.54-1.28-.31-2.25-.52-1.33-.31-2.28-.51-1.35-.3-2.34-.5-1.33-.28-2.45-.5-1.27-.26-2.7-.52-1.07-.21-3.46-.64-.35-.06-4-.69-.26,0-3.64-.59-1.08-.17-2.86-.43-1.37-.19-2.62-.37-1.5-.2-2.53-.32L199.9,109l-2.51-.29-1.61-.17-2.52-.26-1.61-.16-2.57-.23-1.59-.14-2.68-.2-1.5-.11-2.94-.19-1.26-.08-3.92-.19h-.3q-2.14-.09-4.29-.15l-.95,0-3.3-.07H160.4Q159.1,106.68,157.79,106.71Z"/><path class="cls-2" d="M316.4,121.13l-2.83-1.93L311,117.47l-2.82-1.84L305.58,114c-.94-.6-1.87-1.17-2.8-1.75s-1.74-1.09-2.61-1.62l-2.78-1.67-2.61-1.55c-.92-.54-1.84-1.06-2.76-1.59l-2.63-1.49-2.73-1.51L284,101.35l-2.72-1.44-2.61-1.37c-.91-.47-1.82-.92-2.73-1.38l-2.59-1.3-2.71-1.31-2.58-1.24-2.69-1.24c-.85-.4-1.71-.8-2.56-1.18s-1.79-.8-2.68-1.19l-2.54-1.12L255,87.45l-2.52-1c-.89-.37-1.77-.72-2.65-1.07s-1.66-.68-2.49-1l-2.63-1c-.82-.32-1.64-.64-2.46-.94l-2.61-1-2.43-.88-2.58-.91-2.41-.84-2.54-.85-2.38-.79-2.54-.8-2.32-.74-2.54-.76-2.26-.68-2.54-.73-2.19-.62-2.52-.68-2.14-.58-2.48-.64-2.1-.53-2.48-.6-2-.49-2.54-.58-1.87-.42-2.55-.55-1.78-.38-2.54-.51-1.69-.34L183.55,66,182,65.72c-.9-.17-1.8-.32-2.69-.47-.45-.08-.9-.17-1.35-.24l-2.77-.46-1.16-.19-2.89-.43-.94-.15-3.29-.46-.42-.06c-1.3-.17-2.58-.34-3.86-.49l-.58-.07L159,62.33l-.95-.1-2.71-.29-1-.1-2.63-.24-.89-.08L148,61.29l-.69,0c-1-.08-2-.16-3-.22l-.3,0c-25.88-1.73-43.79.11-48.42.68-.14.43-.29.86-.44,1.3s-.36,1-.53,1.58-.44,1.3-.65,2-.36,1.06-.53,1.6-.44,1.33-.65,2l-.54,1.65-.63,2c-.19.57-.37,1.15-.55,1.73s-.41,1.28-.61,1.93l-.57,1.82c-.21.65-.41,1.31-.62,2s-.37,1.17-.55,1.75c-.22.73-.45,1.46-.68,2.19-.16.54-.33,1.07-.49,1.6L86.4,90.41c-1.09,3.53-2.19,7.1-3.3,10.65-1.85,5.91-3.72,11.76-5.58,17.23,7.75-3.22,16.61-6.82,25.24-9.59,2.87-.92,5.72-1.75,8.5-2.43h.07c1.94-.41,3.88-.78,5.83-1.13l1.17-.21c1.78-.31,3.57-.61,5.36-.88l.52-.08q3.11-.47,6.21-.85l.2,0q3-.36,6-.65l.5-.05q6.27-.6,12.52-.88h.19c32-1.45,63.16,2.84,89.67,8.75l.18,0c3.72.83,7.35,1.7,10.88,2.58l.39.1,2.46.63.31.08q3.68.94,7.19,1.92l.64.18,2.06.58.7.2c2.12.6,4.18,1.21,6.2,1.81l.86.27,1.67.5,1,.32,1.58.49.88.28,2.79.89,1,.33,1.36.45,1.11.37,1.26.42,1.26.42,1.75.6,1.34.47,1,.35,1.22.43.95.33,1.34.48.81.3,1.76.64.76.28,1.17.44.73.27,1.27.48.5.19,1.64.63.47.18,1.14.45.53.21,1.06.42.41.16,1.34.54.26.1,1,.42.35.15.85.35.31.12,1,.42.14.06.79.33.2.09.61.26.18.08.65.28,8-9.31q-1-.7-2-1.38C318.11,122.32,317.25,121.72,316.4,121.13Z"/><path class="cls-3" d="M237.67,37.52c-37.6-19.33-96-40.21-161.25-30.39-.77,2.71-1.52,5.43-2.27,8.15l-1.74,6.25c-.82,3-1.62,6-2.44,9-.55,2-1.11,4.07-1.65,6.11-.88,3.26-1.73,6.52-2.59,9.79-.46,1.76-.94,3.52-1.4,5.28q-2,7.52-3.87,15A133.93,133.93,0,0,0,75,62c6.23-2.3,12.67-4.67,19.12-5.75h0c.09,0,2.85-.42,7.83-.82h0c1.87-.15,4.06-.3,6.54-.43h0l2.4-.11.39,0,2.26-.08h.49l2.54-.07h.28q3-.06,6.24-.07h.37l4.15,0h.41c1.46,0,3,.06,4.5.1l.74,0c3.12.09,6.4.24,9.81.45l.9.06c1.68.1,3.4.22,5.15.36l.66.06c1.65.13,3.33.28,5,.44l.73.07c1.81.17,3.65.37,5.52.58l1.06.13q2.88.33,5.86.73c4.91.65,10.12,1.47,15.59,2.46l.23,0,3.56.66.68.13,3.4.69.93.18,3.33.71,1.1.24,3.29.75,1.23.28,3.25.78,1.35.33c1.07.26,2.15.54,3.23.82l1.46.38,3.21.86,1.56.43,3.18.9,1.66.48c1.05.3,2.12.63,3.18,1l1.73.52,3.18,1,1.81.57,3.14,1,1.9.64c1,.35,2.09.72,3.13,1.09l2,.69,3.11,1.14,2.05.76c1,.38,2.07.79,3.11,1.19.7.27,1.4.53,2.1.81l3.1,1.24,2.17.88c1,.42,2.05.86,3.08,1.3l2.22.94,3.07,1.35,2.28,1,3.05,1.4L272,88.37c1,.47,2,1,3,1.45L277.45,91l3,1.51,2.43,1.23,3,1.58,2.46,1.3,3,1.64,2.5,1.38c1,.55,2,1.13,3,1.7l2.52,1.45q1.49.87,3,1.77l2.56,1.53,2.95,1.83,2.57,1.61c1,.63,2,1.27,2.95,1.91l2.59,1.69,2.93,2,2.61,1.78,2.92,2,1.91,1.35c3.18-3.51,5.87-6.37,7.35-7.92C318.17,92.43,284.25,61.46,237.67,37.52Z"/><path class="cls-4" d="M108.26,111.21c-.73.21-1.47.44-2.21.67s-1.39.42-2.1.65l-2.27.75q-1.07.34-2.13.72l-2.24.79-2.2.81-2.15.8-2.3.89-2,.78-2.45,1-1.76.71-2.75,1.13-1.35.55L76.51,123a2.55,2.55,0,0,1-2.8-.44,3.47,3.47,0,0,1-.69-3.49c3.18-9.23,6.43-19.73,9.56-29.88.38-1.2.75-2.41,1.12-3.62l.27-.87c.28-.91.57-1.82.85-2.74l.42-1.33c.24-.77.47-1.53.71-2.29.16-.5.32-1,.47-1.5.23-.72.45-1.43.68-2.14.16-.52.33-1,.49-1.55.22-.7.44-1.39.67-2.08l.48-1.51.69-2.14c.16-.46.31-.93.46-1.4l.77-2.31c.13-.38.25-.77.38-1.15l0-.09-.33.08c-1.11.26-2.22.56-3.33.89l-.23.06c-1.09.33-2.18.67-3.26,1l-.51.16c-1.1.38-2.2.76-3.3,1.16l-.72.26-3.16,1.15a117.65,117.65,0,0,1-17.06,5.34,2.5,2.5,0,0,1-2.31-.72,3.06,3.06,0,0,1-.47-.68,3.41,3.41,0,0,1-.33-1.53,3,3,0,0,1,.08-.68h0Q58,61.54,60,54c.43-1.64.87-3.28,1.3-4.92Q62.65,44,64,38.9c.54-2,1.09-4,1.63-6q1.23-4.56,2.47-9.1c.57-2.11,1.16-4.22,1.75-6.32.63-2.3,1.26-4.61,1.91-6.9L28.47,24.19c-.29,1.63-.9,4.35-2,9.1-1.42,6.29-3.4,15-5.63,24.61-4.75,20.56-9.39,40.19-12.69,53.76C21.73,104.78,34.34,99,48.51,93.14a2.53,2.53,0,0,1,2.78.43A3.45,3.45,0,0,1,52,97l-2.15,6.64C42.29,127,38,140.34,31.87,169.54c7-3.08,12.46-5.92,17.82-8.68,6.3-3.24,12.81-6.59,21.61-10.33a2.87,2.87,0,0,1,1.13-.24,2.42,2.42,0,0,1,1.6.59,3.55,3.55,0,0,1,.82,3.42c-5.73,22-12.39,57.4-15.8,76.27.14-.27.28-.53.41-.81.25-.48.5-1,.74-1.46l1-1.91.72-1.45c.35-.7.69-1.41,1-2.12l.65-1.3,1.52-3.13.24-.49L67,214.43c.19-.42.39-.84.59-1.25.38-.81.77-1.62,1.15-2.44.24-.49.47-1,.71-1.49.35-.76.71-1.52,1.07-2.28.24-.52.48-1.05.73-1.57l1.06-2.31.72-1.57L74.17,199c.22-.48.43-.95.65-1.42l1.33-3c.16-.34.31-.68.46-1,.6-1.33,1.19-2.67,1.79-4l.45-1c.44-1,.89-2,1.33-3.05l.66-1.5L82,181.39c.23-.54.46-1.08.7-1.62.36-.86.73-1.73,1.1-2.59l.7-1.66c.37-.87.74-1.74,1.1-2.61l.69-1.65,1.2-2.89L88,167l1.74-4.28c0-.11.09-.21.13-.32.54-1.32,1.07-2.64,1.6-4,.19-.47.38-.94.56-1.41.39-1,.77-2,1.16-2.92l.63-1.61,1.08-2.77.63-1.65c.36-.92.71-1.85,1.07-2.77l.6-1.6,1.13-3,.51-1.37c.48-1.3,1-2.59,1.43-3.88.06-.16.12-.31.17-.47q.81-2.21,1.6-4.41c.11-.32.22-.64.34-1l1.2-3.4.48-1.39c.35-1,.69-2,1-3l.51-1.49c.33-1,.65-1.93,1-2.89.17-.49.34-1,.5-1.48l1-3,.42-1.29.21-.66Z"/><path d="M341.87,112.69h0C326.35,92.15,290.79,59.19,241.66,34c-39.08-20.09-100-41.8-168-31.14a.56.56,0,0,0-.18,0,.78.78,0,0,0-.22,0L24,18.39a2.74,2.74,0,0,0-1.82,1.89,4.71,4.71,0,0,0-.09.52c-.64,3.85-14.65,64.76-22,94.81A2.73,2.73,0,0,0,4,118.69c14.14-7.3,26.88-13.26,41.12-19.26L44,102.73c-8.16,25.16-12.65,39-19.41,72a2.73,2.73,0,0,0,3.74,3.06c9.07-3.86,15.76-7.3,22.23-10.63,5.45-2.8,11.07-5.7,18.16-8.84-8.13,32.4-17.69,87.93-17.79,88.5v.13a2.93,2.93,0,0,0,0,.78l0,.12a2.58,2.58,0,0,0,.28.76l.07.12a2.71,2.71,0,0,0,.54.62l.1.08,0,0,.22.16a1.54,1.54,0,0,0,.3.14h0a1.16,1.16,0,0,0,.19.09l.13,0a2.7,2.7,0,0,0,.67.12h.21a2.1,2.1,0,0,0,.56-.08l.23-.08a2.44,2.44,0,0,0,.41-.18,1.37,1.37,0,0,0,.2-.13l0,0a2.29,2.29,0,0,0,.32-.26,1.71,1.71,0,0,0,.18-.2l.05-.05c0-.06.11-.12.16-.19.17-.26,17.58-25.87,57.46-50.39,36.79-22.61,100.67-48.78,196.12-45a2.67,2.67,0,0,0,2.32-1.14l9.44-13.1,10.66-12.34a2.42,2.42,0,0,0,.29-.42c5.24-5.81,9.38-10.09,9.42-10.13A2.73,2.73,0,0,0,341.87,112.69Zm-267,43.65c.08-.27.66-2.72-1-4.2a3.34,3.34,0,0,0-3.51-.47c-9,3.84-15.72,7.28-22.19,10.6l0,0c-5.17,2.66-10.5,5.4-17,8.35,6.12-29,10.44-42.36,18.18-66.25l2.21-6.82a4.23,4.23,0,0,0-.93-4.26,3.27,3.27,0,0,0-3.57-.57C32.7,98.64,20.25,104.33,6.8,111.12c3.39-14,8-33.45,12.68-53.76,2.22-9.59,4.27-18.57,5.78-25.27V32c1-4.55,1.62-7.21,1.95-8.91L70.06,9.62,69.13,13l-1.25,4.53c-.42,1.49-.83,3-1.24,4.48q-1.14,4.17-2.26,8.33l-.86,3.17c-.36,1.35-.73,2.69-1.09,4q-1.35,5.06-2.66,10.09L59.14,50c-.27,1-.53,2-.79,3-1.38,5.28-2.72,10.49-4,15.46a4,4,0,0,0-.1.86,4.08,4.08,0,0,0,.4,1.87,3.4,3.4,0,0,0,.61.87,3.22,3.22,0,0,0,3,.94A121.71,121.71,0,0,0,75.89,67.5l3.24-1.18.73-.27c1.23-.44,2.34-.83,3.38-1.18l.52-.17c1.21-.41,2.3-.75,3.33-1.05l.23-.07c.82-.25,1.66-.48,2.54-.7l0,.11c-.26.79-.52,1.58-.79,2.38l-.47,1.44c-.23.73-.47,1.46-.71,2.2l-.5,1.54c-.23.71-.45,1.43-.68,2.14L81.52,89.18c-3.21,10.41-6.54,21.18-9.81,30.64a4.27,4.27,0,0,0,.89,4.3,3.29,3.29,0,0,0,3.6.58l3.94-1.64,1.39-.57,2.81-1.15,1.23-.5.58-.23,2.51-1,1.69-.66.37-.14,2.35-.91,2.2-.82,2.25-.83,2.3-.81,2.17-.74c.78-.26,1.56-.52,2.33-.76s1.28-.41,1.92-.6l.48-.15,1.25-.37-.26.79c-.33,1-.67,2-1,3.07l-.51,1.52c-.33,1-.66,2-1,3l-.52,1.53-1,3-.5,1.43-1.23,3.48-.35,1c-.54,1.51-1.08,3-1.64,4.53l-.17.48-1.47,4L97.73,142c-.38,1-.76,2-1.15,3.06L96,146.71l-1.09,2.85-.66,1.69c-.36.95-.73,1.9-1.1,2.84l-.65,1.65-1.18,3-.58,1.44c-.54,1.36-1.09,2.72-1.64,4.08l-.13.32c-.6,1.47-1.19,2.94-1.8,4.4l-.56,1.37c-.41,1-.82,2-1.24,3l-.7,1.68c-.38.9-.75,1.79-1.13,2.68l-.72,1.71c-.38.89-.76,1.77-1.13,2.65l-.72,1.66-1.17,2.71L79.09,188l-1.37,3.12-.46,1.06q-.92,2.07-1.83,4.11L75,197.3l-1.38,3-.66,1.45c-.39.86-.78,1.71-1.16,2.56L71,206c-.37.79-.73,1.58-1.1,2.36L69.17,210l-1.09,2.34-.72,1.53c-.4.84-.8,1.67-1.19,2.5l-.61,1.28q-.86,1.8-1.71,3.57l-.25.5-1.55,3.2-.67,1.34c-.35.73-.71,1.46-1.07,2.18l-.74,1.47,0,.1C63.23,209.71,69.46,177.15,74.89,156.34Zm-7.41,69.85.53-1.11q1.41-2.88,2.83-5.86l.37-.78q1.38-2.91,2.78-5.91l.3-.65c1-2.07,1.93-4.17,2.9-6.29l.57-1.25c1-2.11,1.92-4.23,2.88-6.39l.47-1c.94-2.12,1.89-4.25,2.83-6.41l.24-.55q1.45-3.34,2.91-6.74l.59-1.39c.94-2.22,1.89-4.45,2.82-6.7l.53-1.28c.94-2.26,1.88-4.54,2.8-6.82l.15-.35c.87-2.14,1.79-4.45,2.82-7l.56-1.41c.9-2.28,1.8-4.6,2.68-6.88l.52-1.37c1-2.73,1.91-5,2.72-7.18l.08-.23c.82-2.19,1.66-4.5,2.59-7.06l.46-1.27c.82-2.29,1.64-4.62,2.45-6.94l.47-1.36c.91-2.62,1.69-4.94,2.41-7.1l.14-.42c.74-2.22,1.47-4.47,2.24-6.88l.1-.3,1.61-.32.58-.11,1.24-.25,2.87-.5.6-.11.94-.16c1.46-.24,2.91-.47,4.32-.68l.29,0c1.4-.2,2.82-.4,4.23-.57l.91-.11.58-.07c1-.12,2-.24,3-.34l1.16-.12.57-.06,2.71-.26,1.44-.13.39,0,2.62-.2,1.87-.13,2.57-.16,1.88-.1,2.57-.11,1.86-.07,2.6-.07h.23l1.58,0,2.68,0h1.72l2.86,0h1.51c1.13,0,2.25,0,3.38.06l1,0,4.4.16h.3c1.34.06,2.69.12,4,.2l.77,0,.52,0,3,.19,1,.07.52,0c.91.07,1.82.13,2.73.21l1.26.1.37,0,2.63.23,1.66.16,2.58.27,1.65.18,2.57.29,1.61.2c.87.1,1.73.21,2.6.33l.32,0,1.21.16,2.69.37.48.07.92.13,2.93.44,1.11.17,3.73.6.27,0c1.36.22,2.71.46,4.06.7l.35.06,3.55.65,1.09.21,2.77.54,1.3.26,2.51.51,1.37.29,2.4.51,1.38.3,2.33.53,1.36.31,2.31.53,1.32.32,2.31.55,1.24.31,2.39.6,1.09.27,2.65.69.74.2c2.23.59,4.48,1.2,6.69,1.82l.58.17,2.61.74.94.28,2.17.63,1.07.32,2,.59,1.1.34,1.87.58,1.07.33,1.82.58,1,.33,1.73.56,1,.34,1.7.56.94.32,1.75.59.81.27,1.9.66.56.2q2.43.84,4.66,1.65l.62.23,1.55.56.71.27c.46.16.91.33,1.35.5l1.94.73L315,138.58l-6.68,9.27c-96.19-3.47-160.73,23.1-197.94,46a238.42,238.42,0,0,0-43.82,34.29C66.83,227.51,67.15,226.85,67.48,226.19Zm244.85-94.61L311,131l-3.72-1.46-1.69-.65-.51-.19-1.31-.5-2.73-1-1.81-.67-.84-.3-1.37-.49-3.27-1.15-1.3-.45-.08,0-1.8-.61-3.73-1.25-1.4-.46-1.07-.35-2.87-.91-.9-.29-1.47-.46-1.19-.36-1.72-.53-.89-.27c-2.09-.62-4.23-1.25-6.37-1.86l-.72-.21-2.11-.59-.67-.18c-2.44-.68-4.93-1.35-7.39-2l-.32-.09-2.52-.64-.4-.1c-3.71-.93-7.47-1.82-11.19-2.66l-.19,0c-27.69-6.18-54.27-9.29-79.19-9.29q-6.6,0-13,.29H151c-4.32.2-8.66.5-12.88.9l-.52,0c-2.17.21-4.18.43-6.17.67l-.2,0c-2.14.27-4.29.56-6.39.87l-.54.09c-1.77.27-3.63.57-5.52.91l-.24,0-1,.17c-2.31.42-4.22.79-6,1.17l-.09,0c-2.71.67-5.66,1.51-8.77,2.51-8.42,2.69-17,6.16-24.58,9.29,1.53-4.55,3.21-9.77,5.25-16.29,1.14-3.63,2.27-7.28,3.38-10.89L87.91,87l5.38-17.09.66-2,.56-1.69c.22-.66.43-1.31.65-2l.51-1.52.36-1c5.51-.65,23.48-2.35,49.15-.64l.3,0c1,.06,2.06.14,3.11.22l.71.06,2.8.23.92.08,2.7.26,1,.1,2.77.29,1,.1,3.21.38.59.07,3.95.51.43.06c1.11.15,2.23.3,3.37.47l1,.15,3,.45.67.11.64.1,2.72.45.83.14.86.15,2.45.44q.48.07,1,.18l1,.19,2.23.42,1.09.22,1.13.23,2.12.43,1.17.25,1.16.24,2.11.46,1.23.28,1.21.27,2.08.48,1.37.33,1.28.31,1.95.47,1.44.37,1.34.34,1.91.49,1.51.41,1.27.34,2,.54,1.57.45,1.28.36,2,.57,1.63.49,1.28.39,2,.6,1.68.53,1.29.41,2,.64,1.76.58,1.27.43,2,.67,1.8.63,1.27.44,2,.72,1.83.67,1.22.45,2.11.77,1.86.71,1.24.48L251,85c.64.25,1.29.51,1.93.78l1.13.45,2.2.89,2,.83,1.15.48,2.19.93,2,.87,1.13.5,2.23,1,2.05.94,1.07.5c.76.34,1.51.69,2.27,1l2.05,1,1.06.51,2.31,1.12,2.09,1,1,.5c.79.39,1.57.79,2.36,1.2l2.18,1.13.88.47,2.41,1.27,2.19,1.19.88.49c.81.44,1.62.88,2.43,1.34l2.19,1.25.81.46c.84.48,1.68,1,2.51,1.45s1.5.88,2.25,1.33l.65.39c.88.52,1.75,1,2.63,1.58s1.49.92,2.24,1.38l.64.4,2.65,1.66,2.27,1.46.54.35,2.74,1.79,2.3,1.55.43.28,2.81,1.92c.78.53,1.55,1.08,2.33,1.62l.3.22,1.39,1-7.44,8.63-2.19-.94-1-.43Zm9.7-15.37-2.66-1.79c-.71-.47-1.42-.94-2.14-1.4l-.85-.56-2.65-1.7-2.06-1.3-1-.61-2.57-1.6-2-1.22-1-.61-2.56-1.52-2-1.14-1.06-.61-2.58-1.47L295,99.63,293.86,99l-2.57-1.4c-.62-.34-1.24-.66-1.86-1l-1.08-.57-2.62-1.37-1.8-.91-1.19-.61-2.55-1.27-1.75-.85-1.21-.59-2.56-1.22q-.84-.4-1.68-.78l-1.19-.56-2.61-1.19L267.57,86l-1.22-.54-2.6-1.15-1.56-.66-1.19-.5c-.88-.38-1.77-.75-2.65-1.11l-1.51-.62-1.2-.48c-.88-.36-1.77-.72-2.65-1.06l-1.42-.55-1.21-.47q-1.34-.52-2.67-1c-.46-.18-.92-.35-1.39-.51l-1.17-.44-2.69-1-1.32-.46L239.91,75l-2.67-.93L236,73.66l-1.12-.37-2.76-.92L230.94,72l-1.09-.34L227,70.77l-1.1-.33-1.05-.32c-.95-.29-1.9-.58-2.85-.85q-.53-.17-1.05-.3l-1-.3-2.86-.81-.95-.26-1-.25-2.95-.8-.88-.22-.83-.22-3.06-.78-.8-.19L206,65l-3.21-.77-.71-.16-.53-.12-3.35-.76-.64-.14-.48-.1c-1.14-.25-2.27-.5-3.39-.73l-.95-.19-3.46-.69-.7-.14L185,60.49l-.23,0c-5.3-1-10.64-1.8-15.87-2.5-1.81-.24-3.7-.48-6-.74l-1.08-.13c-1.95-.22-3.84-.42-5.62-.59l-.73-.07c-1.73-.17-3.46-.32-5.13-.46l-.67-.05c-1.71-.14-3.43-.26-5.24-.37l-.92-.06c-3.35-.2-6.71-.36-10-.46l-.75,0c-1.59,0-3.13-.09-4.59-.11h-.41l-4.23,0h-.37c-2.13,0-4.27,0-6.36.07h-.28L114,55h-.5l-2.3.09h-.39l-2.47.12c-2.29.12-4.54.26-6.71.44-4.86.39-7.69.78-8,.82l-.1,0C86.9,57.62,80.34,60,74,62.39,69.51,64,64.91,65.73,60.4,66.91c1.18-4.64,2.41-9.39,3.65-14.15l.84-3.18,1-3.75c.74-2.79,1.47-5.58,2.22-8.37.35-1.29.7-2.57,1-3.86l1.2-4.41c.64-2.35,1.27-4.71,1.92-7.06.37-1.34.74-2.68,1.12-4l1.08-3.89q.87-3.15,1.75-6.28c66-9.8,125,11.36,163,30.86,46.72,24,81.3,55.48,96.92,75.35-1.41,1.49-3.83,4.07-6.66,7.18l-.66-.46-.79-.56-.29-.2L325,118.23l-2.16-1.47Z"/><path class="cls-5" d="M430.23,60.48c0,.79,0,1.49-.07,2.16a68.43,68.43,0,1,1-3.93.07c-.05-.69-.08-1.42-.08-2.23V5.71a12.81,12.81,0,0,1,.09-1.45C414.5,5,403,6.2,391.94,7.91s-15.94,5-15.6,10.32c.43,6.9,9.7,9,15.19,9.61,4.57.52,15.32,2.25,16.61,7.09.54,2-.51,4-3.14,6-4.83,3.56-12.24,3.65-18.2,3.72-1.36,0-2.66,0-3.84.09-7.28.34-14.67.45-21.82.55-7.41.11-15.08.22-22.59.59l-3.12.15c-15.71.69-44.94,2-48.66,19.94-1.88,9,5.28,16.61,12,20.33C303.54,89,309,90,314.83,91.19c6.77,1.35,13.77,2.74,19.53,6.88,3.22,2.31,5.21,5.41,5.47,8.52a8.7,8.7,0,0,1-2.75,7c-3.08,3.09-7.93,4.67-12.24,5.91a112.72,112.72,0,0,1-14.63,2.85c-1.77.26-3.54.52-5.31.82-8.54,1.42-19.25,4-26.16,11.75a19.78,19.78,0,0,0-3.16,22c4.75,10.45,15.15,15.51,23.05,17.91a132.27,132.27,0,0,0,17.46,3.61c6.66,1.07,13.55,2.17,20.12,4.43,4.41,1.51,14.85,5.72,16.61,12.09.47,1.71.52,4.35-1.93,7.27-3.5,4.15-9.52,5.58-14.82,6.84-1.48.35-2.87.68-4.12,1-6.2,1.84-12.17,3.89-17.76,6.11-3.62,1.44-7.7,3.23-10.25,6.33a7.62,7.62,0,0,0-1.86,6.59c.61,2.78,2.92,5.38,6.19,7,4,1.91,8.54,2.52,13,3.12l1.52.2c7.36,1,14.81,1.94,22.16,2.74,14.71,1.59,29.68,2.77,44.51,3.5a761.58,761.58,0,0,0,89.26-.86c6.73-.46,13.6-1,20.41-1.67l2-.18c4.67-.41,9.08-.8,13.06-2.78,3.06-1.52,5.32-4.27,5.49-6.69.12-1.71-.77-3.23-2.66-4.52-2.14-1.47-4.87-2.09-7.77-2.76a37.4,37.4,0,0,1-6.21-1.81c-3.73-1.59-7.8-3.57-9.72-6.21-1.67-2.29-1.49-4.07-1.05-5.16,1.38-3.4,6.78-4.34,10.36-5l.89-.16c10.75-2,21.77-2.28,32.43-2.57,4.13-.11,8.4-.22,12.58-.43l2.71-.13c9.62-.42,21.59-.95,28.25-8,2.66-2.82,3.95-5.86,3.83-9-.13-3.78-2.32-7.79-6.15-11.3-8.16-7.48-17.7-10.66-28.42-13.76-4.87-1.41-11.54-3.34-14.73-8.53a10.43,10.43,0,0,1-1.08-9.32c2-5.44,8.37-9.66,13.81-11.44,5.71-1.86,11.67-2.21,17.44-2.54,6.13-.36,11.93-.7,17.47-2.7,3.21-1.17,13.84-5.69,15.54-14.93a13.44,13.44,0,0,0-2.41-11.21c-7.92-10.32-31.36-12.19-41.37-13h-.14c-1.91-.15-3.87-.21-5.94-.28-5.58-.18-11.34-.37-16.51-2.35s-8.93-6.27-9.67-11c-.61-3.8.88-7.39,4.19-10.09a33.25,33.25,0,0,1,8-4.34c3.93-1.69,7.64-3.28,9.62-6.46a6,6,0,0,0,.82-5.1c-.95-3.17-4.32-5.7-7.16-7-11-5.08-24.41-7.19-37.21-8.92a200.89,200.89,0,0,0-36.68-1.5h-.27c-6-.62-7.31-3-7.38-4.94-.21-6.09,10.05-9.29,11.22-9.64a46.24,46.24,0,0,1,5.94-1.16c3.65-.56,7.44-1.14,10-3.1,2.28-1.76,2-3,1.87-3.41-.57-2.32-4.62-4.67-7.84-5.23a94.7,94.7,0,0,0-15.16-.85c-1.46,0-2.91,0-4.34,0-2.1,0-4.21-.05-6.33-.05-5.34,0-10.69.11-16,.32-1.46.06-2.92.14-4.37.21a13.9,13.9,0,0,1,.11,1.67Zm-125.9,5.88a2.12,2.12,0,1,1,2.11-2.12A2.12,2.12,0,0,1,304.33,66.36Zm25.36,2.14A4.26,4.26,0,1,1,334,64.24,4.26,4.26,0,0,1,329.69,68.5Zm-30.77,82.85a3.29,3.29,0,1,1,3.29-3.28A3.29,3.29,0,0,1,298.92,151.35Zm70.61-92.44A2.12,2.12,0,1,1,367.41,61,2.12,2.12,0,0,1,369.53,58.91ZM324.15,145a2.12,2.12,0,1,1,2.12-2.12A2.12,2.12,0,0,1,324.15,145ZM345,155.47a15.56,15.56,0,0,0-7.67,9.46.72.72,0,0,1-1.41,0,15.59,15.59,0,0,0-7.67-9.46,1,1,0,0,1,0-1.73,15.59,15.59,0,0,0,7.67-9.46.72.72,0,0,1,1.41,0,15.56,15.56,0,0,0,7.67,9.46A1,1,0,0,1,345,155.47Zm8.17,68.9a2.12,2.12,0,1,1,2.12-2.12A2.12,2.12,0,0,1,353.12,224.37Zm7-138.38q-3.6-3.33-7-6.82,0,6,.43,12.07a.86.86,0,0,1-1.71.15c-.29-3.92-.42-7.84-.44-11.75q-3.17,3.61-6.2,7.36c-.7.87-2-.27-1.29-1.13,2-2.54,4.15-5,6.3-7.48-3.41-.13-6.82-.24-10.23-.31-1.11,0-1.24-1.74-.14-1.72,3.63.07,7.25.19,10.88.33-1.79-1.88-3.56-3.78-5.29-5.72-.72-.81.4-2.14,1.14-1.31,1.59,1.79,3.22,3.55,4.87,5.28q.15-6.61.79-13.24c.11-1.11,1.8-.81,1.69.3-.43,4.36-.67,8.72-.77,13.08,2.32-2.56,4.67-5.08,7.1-7.54.78-.8,2.08.33,1.29,1.13q-3.91,4-7.65,8.15c5.54.24,11.07.55,16.6,1,1.11.08.78,1.79-.31,1.71-5.06-.38-10.12-.66-15.19-.89q3.07,3.09,6.28,6.07C362.07,85.42,360.94,86.74,360.13,86Zm46.44,141.87a2.12,2.12,0,1,1,2.12-2.12A2.12,2.12,0,0,1,406.57,227.86Zm69.64-3.59a12.72,12.72,0,0,0-6.27,7.73.58.58,0,0,1-1.15,0,12.72,12.72,0,0,0-6.27-7.73.83.83,0,0,1,0-1.42,12.69,12.69,0,0,0,6.27-7.73.58.58,0,0,1,1.15,0,12.69,12.69,0,0,0,6.27,7.73A.84.84,0,0,1,476.21,224.27Zm84.35-45.79a2.12,2.12,0,1,1-2.12,2.11A2.11,2.11,0,0,1,560.56,178.48ZM544,184.58a3.29,3.29,0,1,1-3.29,3.29A3.29,3.29,0,0,1,544,184.58ZM563.85,108a3.29,3.29,0,1,1-3.29,3.29A3.28,3.28,0,0,1,563.85,108Zm-41.33,8.69a2.56,2.56,0,1,1-2.56,2.56A2.56,2.56,0,0,1,522.52,116.66Zm-6.55-23a2.12,2.12,0,1,1-2.12,2.12A2.12,2.12,0,0,1,516,93.61Zm-4,64.79.3,13q3.26-4.6,6.47-9.22a.86.86,0,0,1,1.44,1c-2.19,3.15-4.4,6.28-6.62,9.42h9.5c1.11,0,1,1.73-.09,1.73h-9.43l4.92,6.36c.68.87-.6,2-1.29,1.15l-4.81-6.21.31,13.2c0,1.12-1.7,1-1.72-.07l-.28-12.09q-3.27,4.59-6.56,9.16c-.65.91-2.09,0-1.43-1q3.8-5.25,7.56-10.55H499.85c-1.12,0-1-1.73.08-1.73H510q-2.28-3-4.57-5.9c-.67-.87.61-2,1.29-1.16l3.8,4.9-.28-12.06C510.25,157.21,512,157.29,512,158.4ZM487,65.45l6.7.41c-1.6-1.81-3.21-3.61-4.81-5.41a.87.87,0,0,1,1.29-1.16l5.37,6,.13-.14q0-6.37-.23-12.76c0-1.12,1.69-1,1.72.07.1,3.61.16,7.21.2,10.81,1.39-1.52,2.8-3,4.27-4.46.8-.79,1.93.51,1.15,1.29-1.87,1.84-3.66,3.75-5.39,5.7v.24l13.45.8a.87.87,0,0,1-.08,1.74l-13-.78,7.92,8.9c.73.82-.55,2-1.29,1.16q-3.51-3.95-7-7.88c0,3.42,0,6.84-.08,10.26a.86.86,0,0,1-1.72-.07q.1-6.06.09-12.12l-.12-.13c-1.57,1.86-3.1,3.76-4.56,5.72-.66.9-2.09-.05-1.43-1q2-2.62,4.07-5.14l-6.74-.4A.87.87,0,0,1,487,65.45ZM460,49.92a12.7,12.7,0,0,0,6.28-7.73.58.58,0,0,1,1.15,0,12.69,12.69,0,0,0,6.27,7.73.84.84,0,0,1,0,1.42,12.72,12.72,0,0,0-6.27,7.73.58.58,0,0,1-1.15,0A12.73,12.73,0,0,0,460,51.34.84.84,0,0,1,460,49.92Z"/><path class="cls-4" d="M393.15,85.5h7.07l1-2.28,1.93-4.55-8.85.37a81.56,81.56,0,0,0-8.11,6.46Z"/><path class="cls-4" d="M384.08,100.77h3.13l4.09-10.53.16-.4h-9.85a94.91,94.91,0,0,0-7.4,10.93h9.87Z"/><polygon class="cls-4" points="405.81 83.43 404.93 85.5 409.73 85.5 414.15 85.5 417.41 85.5 417.95 81.54 418.4 78.24 413.27 78.24 407.91 78.47 405.81 83.43"/><path class="cls-4" d="M457.74,83.22l1,2.28h14.07A79.18,79.18,0,0,0,464.64,79l-8.83-.36Z"/><path class="cls-4" d="M412.3,70.76a50,50,0,0,0-9.54,3.38l8.76-.23Z"/><path class="cls-4" d="M427.58,73.9l.16-1.85.28-3.21c-2.72.17-6.77.47-11,1.07l-1,4h11.59Z"/><path class="cls-4" d="M439.92,73.91h3.25V69.83c-2.27-.33-6.42-.87-10.78-1.07l0,.44-.41,4.7h8Z"/><path class="cls-4" d="M447.5,70.83v3.08l8.85.24A67,67,0,0,0,447.5,70.83Z"/><polygon class="cls-4" points="422.78 78.24 422.24 82.16 421.79 85.5 427.4 85.5 431.74 85.5 437.13 85.5 436.68 82.16 436.14 78.24 427.2 78.24 427.2 78.24 422.78 78.24"/><polygon class="cls-4" points="403.43 100.77 406.75 100.77 407.82 95.3 408.88 89.83 403.09 89.83 398.38 89.83 396.12 89.83 392.02 100.37 391.86 100.77 399.01 100.77 403.43 100.77"/><polygon class="cls-4" points="466.23 96.97 463.46 89.83 460.55 89.83 455.83 89.83 450.2 89.83 452.32 100.77 456.08 100.77 460.49 100.77 467.7 100.77 466.23 96.97"/><polygon class="cls-4" points="416.81 89.83 413.3 89.83 412.24 95.3 411.18 100.77 416.99 100.77 421.33 100.77 427.4 100.77 427.4 89.83 421.19 89.83 416.81 89.83"/><polygon class="cls-4" points="437.73 89.83 431.74 89.83 431.74 100.77 438.17 100.77 442.52 100.77 447.51 100.77 445.4 89.83 442.11 89.83 437.73 89.83"/><path class="cls-4" d="M400.58,177H386.52a80,80,0,0,0,8.13,6.46l8.83.36-2.54-6Z"/><polygon class="cls-4" points="417.77 176.97 414.73 176.97 409.93 176.97 405.3 176.97 408.27 183.99 413.99 184.22 418.77 184.22 418.17 179.82 417.77 176.97"/><polygon class="cls-4" points="427.55 176.97 422.15 176.97 422.73 181.19 423.15 184.22 427.73 184.22 432.09 184.22 436.51 184.22 436.77 182.28 437.5 176.97 431.89 176.97 427.55 176.97"/><path class="cls-4" d="M386.93,161.69H374.19A132.33,132.33,0,0,0,382,172.63h9.19Z"/><polygon class="cls-4" points="395.82 172.63 398.74 172.63 403.46 172.63 409.09 172.63 406.97 161.69 403.21 161.69 398.8 161.69 391.59 161.69 392.19 163.25 395.82 172.63"/><polygon class="cls-4" points="437.96 161.69 431.89 161.69 431.89 172.63 442.48 172.63 442.48 172.63 445.99 172.63 447.05 167.16 448.11 161.69 442.3 161.69 437.96 161.69"/><path class="cls-4" d="M378.29,105.11H372a136.41,136.41,0,0,0-4.18,13.41l7.54,0Z"/><polygon class="cls-4" points="390.18 105.11 383.04 105.11 379.84 118.46 395.8 118.46 395.98 117.46 398.22 105.11 390.18 105.11 390.18 105.11"/><polygon class="cls-4" points="438.69 111.78 438.38 105.11 431.74 105.11 427.4 105.11 421.13 105.11 420.82 111.78 420.51 118.46 438.99 118.46 438.69 111.78"/><polygon class="cls-4" points="474.23 144.01 471.82 144.01 469.88 144.01 469.88 144.01 463.49 144.01 461.06 157.35 469.11 157.35 473.77 157.35 476.25 157.35 479.44 144.01 474.23 144.01"/><path class="cls-4" d="M375.13,144l-7.54-.05a140,140,0,0,0,4.19,13.4h6.29Z"/><polygon class="cls-4" points="416.57 157.35 415.95 144.01 410.86 144.01 406.52 144.01 399.99 144.01 402.18 156.03 402.42 157.35 406.13 157.35 410.93 157.35 416.57 157.35"/><polygon class="cls-4" points="431.89 157.35 438.16 157.35 438.47 150.68 438.78 144.01 432.04 144.01 426.76 144.01 420.29 144.01 420.85 155.97 420.91 157.35 427.55 157.35 431.89 157.35"/><path class="cls-4" d="M385.15,135.91l.94-13H366.81a55,55,0,0,0-.09,16.73l18.16.06Z"/><polygon class="cls-4" points="399.2 139.67 406.66 139.67 406.94 131.27 407.22 122.87 390.44 122.87 389.55 135.18 389.23 139.67 394.79 139.67 399.2 139.67"/><polygon class="cls-4" points="427.13 122.87 411.56 122.87 411.28 131.27 411 139.67 415.75 139.67 420.09 139.67 426.83 139.67 427.13 122.87"/><path d="M597.56,99.8c-8.87-11.56-32.51-13.45-43.87-14.36h-.14c-2-.16-4.09-.23-6.11-.3-5.28-.17-10.74-.35-15.36-2.12-3.92-1.5-6.92-4.81-7.47-8.22-.41-2.56.61-4.92,2.95-6.82a30.51,30.51,0,0,1,7.19-3.84c4.26-1.82,8.65-3.71,11.21-7.82a9.52,9.52,0,0,0,1.21-8c-1.09-3.65-4.47-7.08-9-9.19-11.45-5.29-25.15-7.45-38.2-9.22a204.79,204.79,0,0,0-37.2-1.53c-3-.32-4.09-1.12-4.1-1.55-.09-2.42,5.14-5.1,8.7-6.15a43.19,43.19,0,0,1,5.47-1.06c4.1-.63,8.34-1.27,11.61-3.79s3.59-5.26,3.15-7c-1.08-4.34-6.89-7.2-10.66-7.84A97.14,97.14,0,0,0,461.15.08q-2.17,0-4.29,0c-7.49-.12-15.06,0-22.51.28a387,387,0,0,0-43,4.11c-4.76.73-19.25,3-18.56,14,.44,7,6.94,11.58,18.3,12.88,6.94.79,13.17,2.85,13.61,4.51.1.37-.42,1.21-1.83,2.24-3.92,2.9-10.71,3-16.16,3-1.41,0-2.74,0-4,.09-7.22.35-14.59.45-21.71.55-7.44.11-15.14.22-22.72.6l-3.1.14c-16.66.74-47.66,2.11-51.94,22.74-2.26,10.91,6,19.81,13.71,24.11,5.28,2.93,11.29,4.13,17.1,5.28,6.7,1.34,13,2.59,18.18,6.29,2.34,1.68,3.84,3.91,4,6a5.21,5.21,0,0,1-1.74,4.19c-2.48,2.5-6.84,3.9-10.72,5a108.88,108.88,0,0,1-14.18,2.75c-1.79.26-3.58.53-5.36.83-9.12,1.51-20.56,4.35-28.2,12.87a23.48,23.48,0,0,0-3.74,25.75c5.28,11.65,16.63,17.2,25.22,19.82a135,135,0,0,0,17.93,3.72c6.51,1,13.24,2.12,19.53,4.28,6,2,13.29,5.81,14.37,9.7a4.38,4.38,0,0,1-1.24,4.08c-2.75,3.27-8.16,4.55-12.94,5.69-1.53.36-3,.7-4.3,1.1-6.3,1.87-12.38,4-18.06,6.21-4,1.6-8.59,3.62-11.67,7.36a11,11,0,0,0-2.58,9.57c.84,3.83,3.87,7.32,8.09,9.36,4.47,2.15,9.33,2.8,14,3.44l1.5.2c7.39,1,14.88,1.94,22.26,2.74,14.78,1.61,29.82,2.79,44.72,3.52q18.67.91,37.48.92c17.44,0,34.89-.59,52.19-1.78,6.77-.46,13.66-1,20.5-1.68l2-.18c4.79-.42,9.74-.85,14.31-3.13,4.25-2.11,7.17-5.87,7.43-9.59.14-2.08-.46-5.11-4.17-7.65-2.69-1.85-5.88-2.58-9-3.29a33.45,33.45,0,0,1-5.62-1.62c-2-.85-6.65-2.83-8.27-5.05-.32-.44-.84-1.26-.63-1.78.65-1.59,5.78-2.48,7.71-2.81l.93-.17c10.48-1.94,21.36-2.23,31.88-2.51,4.15-.11,8.44-.22,12.66-.44l2.7-.12c10.25-.46,23-1,30.64-9.09,3.33-3.52,4.94-7.42,4.79-11.58-.17-4.79-2.69-9.55-7.29-13.76-8.72-8-18.66-11.31-29.81-14.54-4.56-1.32-10.24-3-12.72-7a6.88,6.88,0,0,1-.78-6.28c1.58-4.31,7.13-7.85,11.61-9.31,5.28-1.73,10.75-2,16.55-2.38,6.12-.36,12.44-.73,18.46-2.91,4.69-1.69,15.82-6.81,17.8-17.58A17,17,0,0,0,597.56,99.8Zm-.37,13.34c-1.7,9.24-12.33,13.76-15.54,14.93-5.54,2-11.34,2.34-17.47,2.7-5.77.33-11.73.68-17.44,2.54-5.44,1.78-11.82,6-13.81,11.44a10.43,10.43,0,0,0,1.08,9.32c3.19,5.19,9.86,7.12,14.73,8.53,10.72,3.1,20.26,6.28,28.42,13.76,3.83,3.51,6,7.52,6.15,11.3.12,3.18-1.17,6.22-3.83,9-6.66,7-18.63,7.57-28.25,8l-2.71.13c-4.18.21-8.45.32-12.58.43-10.66.29-21.68.58-32.43,2.57l-.89.16c-3.58.62-9,1.56-10.36,5-.44,1.09-.62,2.87,1.05,5.16,1.92,2.64,6,4.62,9.72,6.21a37.4,37.4,0,0,0,6.21,1.81c2.9.67,5.63,1.29,7.77,2.76,1.89,1.29,2.78,2.81,2.66,4.52-.17,2.42-2.43,5.17-5.49,6.69-4,2-8.39,2.37-13.06,2.78l-2,.18c-6.81.65-13.68,1.21-20.41,1.67a761.58,761.58,0,0,1-89.26.86c-14.83-.73-29.8-1.91-44.51-3.5-7.35-.8-14.8-1.72-22.16-2.74l-1.52-.2c-4.42-.6-9-1.21-13-3.12-3.27-1.57-5.58-4.17-6.19-7a7.62,7.62,0,0,1,1.86-6.59c2.55-3.1,6.63-4.89,10.25-6.33,5.59-2.22,11.56-4.27,17.76-6.11,1.25-.37,2.64-.7,4.12-1,5.3-1.26,11.32-2.69,14.82-6.84,2.45-2.92,2.4-5.56,1.93-7.27-1.76-6.37-12.2-10.58-16.61-12.09-6.57-2.26-13.46-3.36-20.12-4.43a132.27,132.27,0,0,1-17.46-3.61c-7.9-2.4-18.3-7.46-23.05-17.91a19.78,19.78,0,0,1,3.16-22c6.91-7.71,17.62-10.33,26.16-11.75,1.77-.3,3.54-.56,5.31-.82a112.72,112.72,0,0,0,14.63-2.85c4.31-1.24,9.16-2.82,12.24-5.91a8.7,8.7,0,0,0,2.75-7c-.26-3.11-2.25-6.21-5.47-8.52-5.76-4.14-12.76-5.53-19.53-6.88C309,90,303.54,89,298.75,86.28c-6.7-3.72-13.86-11.28-12-20.33,3.72-18,33-19.25,48.66-19.94l3.12-.15c7.51-.37,15.18-.48,22.59-.59,7.15-.1,14.54-.21,21.82-.55,1.18-.06,2.48-.07,3.84-.09,6-.07,13.37-.16,18.2-3.72,2.63-1.94,3.68-3.95,3.14-6-1.29-4.84-12-6.57-16.61-7.09-5.49-.63-14.76-2.71-15.19-9.61C376,12.88,381,9.6,391.94,7.91S414.5,5,426.24,4.26a12.81,12.81,0,0,0-.09,1.45V60.48c0,.81,0,1.54.08,2.23a68.74,68.74,0,1,0,3.93-.07c0-.67.07-1.37.07-2.16V5.71A13.9,13.9,0,0,0,430.12,4c1.45-.07,2.91-.15,4.37-.21,5.29-.21,10.64-.32,16-.32,2.12,0,4.23,0,6.33.05,1.43,0,2.88,0,4.34,0a94.7,94.7,0,0,1,15.16.85c3.22.56,7.27,2.91,7.84,5.23.1.41.41,1.65-1.87,3.41-2.56,2-6.35,2.54-10,3.1a46.24,46.24,0,0,0-5.94,1.16c-1.17.35-11.43,3.55-11.22,9.64.07,1.91,1.4,4.32,7.38,4.94h.27a200.89,200.89,0,0,1,36.68,1.5c12.8,1.73,26.21,3.84,37.21,8.92,2.84,1.31,6.21,3.84,7.16,7a6,6,0,0,1-.82,5.1c-2,3.18-5.69,4.77-9.62,6.46a33.25,33.25,0,0,0-8,4.34c-3.31,2.7-4.8,6.29-4.19,10.09.74,4.68,4.54,9,9.67,11s10.93,2.17,16.51,2.35c2.07.07,4,.13,5.94.28h.14c10,.81,33.45,2.68,41.37,13A13.44,13.44,0,0,1,597.19,113.14ZM443.3,188.56l-.14.53-.85,3.46c-4.27.6-8.32.9-11.05,1.07l.26-2.92.19-2.14H443.3ZM428,68.84l-.28,3.21-.16,1.85H416l1-4C421.25,69.31,425.3,69,428,68.84Zm8.12,9.4.54,3.92.45,3.34H421.79l.45-3.34.54-3.92h13.36Zm-50.05,44.63-.94,13-.27,3.75-18.16-.06a55,55,0,0,1,.09-16.73ZM418.4,78.24l-.45,3.3-.54,4H404.93l.88-2.07,2.1-5,5.36-.23Zm58.06,26.87,3.2,13.35h-16l-1.22-6.68-1.21-6.67h15.18Zm-59.28,67.52h-3.29l-2.12-10.94h15.78v10.94Zm-27-67.52h8L396,117.46l-.18,1h-16l3.2-13.35Zm41.71,67.52V161.69h16.22l-1.06,5.47L446,172.63h-14.1Zm-11.38-54.17.31-6.68.31-6.67h17.25l.3,6.67.31,6.68Zm-20.3,0,2.43-13.35h14.14l-.31,6.67-.3,6.68Zm11.07,12.81.28-8.4h15.57l-.3,16.8H411ZM426.76,144h12l-.31,6.67-.31,6.67H420.91l-.06-1.38-.56-12Zm16.56-4.34H432l-.29-16.8h15.56l.28,8.4.28,8.4Zm-53.77-4.5.89-12.3h16.78l-.28,8.4-.28,8.4H389.23Zm12.87,22.18-.24-1.32L400,144h16l.62,13.34H402.42Zm40.08,0,.31-6.67.31-6.67h16l-2.19,12-.24,1.32H442.5Zm.84-38.89-.31-6.68-.31-6.67h14.15l1.21,6.67,1.21,6.68Zm-.82-17.69H431.74V89.84H445.4l2.12,10.93Zm-15.12,0H411.18l1.06-5.47,1.06-5.46h14.1Zm-29-10.93h10.51l-1.06,5.46-1.06,5.47h-14.9l.16-.4,4.1-10.53Zm.43,71.85H407l2.12,10.94H395.82l-3.63-9.38-.6-1.56ZM427.55,177h9.95l-.73,5.31-.26,1.94H423.15l-.42-3-.57-4.22Zm36.73-37.3H452.13l-.28-8.4-.28-8.4h16.79l.88,12.3.32,4.5Zm-3.79-38.9h-8.17L450.2,89.84h13.26L466.23,97l1.47,3.8ZM387,144h8.61L398,157.35H382.82L379.63,144H387Zm53.92,40.21,1-7.25h12.48l-3,7-5.38.23Zm20-11.59h-10.5l1.06-5.47,1.06-5.47h14.89l-1.1,2.84-3.15,8.1ZM479.44,144l-3.19,13.34H461.06L463.49,144h15.95Zm-67.92-70.1-8.76.23a50,50,0,0,1,9.54-3.38ZM394.26,79l8.85-.37-1.93,4.55-1,2.28H386.15A81.56,81.56,0,0,1,394.26,79Zm-12.65,10.8h9.85l-.16.4-4.09,10.53h-13A94.91,94.91,0,0,1,381.61,89.84Zm-3.32,15.27-2.94,13.36-7.54,0A136.41,136.41,0,0,1,372,105.11ZM375.13,144l2.94,13.35h-6.29a140,140,0,0,1-4.19-13.4Zm3.9,17.69h7.9l4.24,10.94H382a132.33,132.33,0,0,1-7.79-10.94ZM392.85,177h7.73l.36.84,2.54,6-8.83-.36a80,80,0,0,1-8.13-6.46Zm18.93,11.59v3.07a66.3,66.3,0,0,1-8.84-3.32ZM405.3,177h12.47l.4,2.85.6,4.4H414l-5.71-.23Zm10.82,11.59h11.23l-.3,3.43-.15,1.71c-4.36-.2-8.51-.74-10.78-1.07Zm31.4,1,.25-1,8.74-.24A49.34,49.34,0,0,1,447,191.7Zm17.5-6.12-8.84.37,2.89-6.82h14.07A80.35,80.35,0,0,1,465,183.42Zm2.81-10.79,4.25-10.94h13a95,95,0,0,1-7.4,10.94ZM481,157.35,483.94,144l7.54-.05a140,140,0,0,1-4.19,13.4Zm11.08-17.75-18.17.06-.27-3.75-.93-13h19.85A69.72,69.72,0,0,1,492.08,139.6Zm-7.92-21.13-3-13.36h6.3a140,140,0,0,1,4.19,13.41Zm-3.9-17.7h-7.9l-2.77-7.14-1.47-3.79h9.19a128.06,128.06,0,0,1,7.78,10.93ZM466.44,85.5H458.7l-1-2.28-1.93-4.55,8.83.36a79.18,79.18,0,0,1,8.13,6.47ZM447.5,73.91V70.83a67,67,0,0,1,8.85,3.32Zm5.61,9.52L454,85.5H441.51l-.54-4-.45-3.3h4.79l5.7.24Zm-9.94-9.52H431.94l.41-4.7,0-.44c4.36.2,8.51.74,10.78,1.07Z"/><path d="M361.26,84.67q-3.21-3-6.28-6.07c5.07.23,10.13.51,15.19.89,1.09.08,1.42-1.63.31-1.71-5.53-.41-11.06-.72-16.6-1q3.74-4.16,7.65-8.15c.79-.8-.51-1.93-1.29-1.13-2.43,2.46-4.78,5-7.1,7.54.1-4.36.34-8.72.77-13.08.11-1.11-1.58-1.41-1.69-.3q-.64,6.61-.79,13.24c-1.65-1.73-3.28-3.49-4.87-5.28-.74-.83-1.86.5-1.14,1.31,1.73,1.94,3.5,3.84,5.29,5.72-3.63-.14-7.25-.26-10.88-.33-1.1,0-1,1.7.14,1.72,3.41.07,6.82.18,10.23.31-2.15,2.46-4.26,4.94-6.3,7.48-.7.86.59,2,1.29,1.13q3-3.75,6.2-7.36c0,3.91.15,7.83.44,11.75a.86.86,0,0,0,1.71-.15q-.44-6-.43-12.07,3.42,3.48,7,6.82C360.94,86.74,362.07,85.42,361.26,84.67Z"/><path d="M523.08,172.54h-9.5c2.22-3.14,4.43-6.27,6.62-9.42a.86.86,0,0,0-1.44-1q-3.21,4.62-6.47,9.22l-.3-13c0-1.11-1.74-1.19-1.72-.08l.28,12.06-3.8-4.9c-.68-.88-2,.29-1.29,1.16q2.3,2.94,4.57,5.9h-10.1c-1.1,0-1.2,1.73-.08,1.73h10.41q-3.76,5.29-7.56,10.55c-.66.91.78,1.86,1.43,1q3.3-4.56,6.56-9.16L511,188.7c0,1.11,1.74,1.19,1.72.07l-.31-13.2,4.81,6.21c.69.89,2-.28,1.29-1.15l-4.92-6.36H523C524.09,174.27,524.19,172.54,523.08,172.54Z"/><path d="M505.67,76.74l-7.92-8.9,13,.78a.87.87,0,0,0,.08-1.74l-13.45-.8v-.24c1.73-2,3.52-3.86,5.39-5.7.78-.78-.35-2.08-1.15-1.29-1.47,1.45-2.88,2.94-4.27,4.46,0-3.6-.1-7.2-.2-10.81,0-1.11-1.75-1.19-1.72-.07q.18,6.38.23,12.76l-.13.14-5.37-6a.87.87,0,0,0-1.29,1.16c1.6,1.8,3.21,3.6,4.81,5.41l-6.7-.41a.87.87,0,0,0-.09,1.74l6.74.4q-2.1,2.52-4.07,5.14c-.66.9.77,1.85,1.43,1,1.46-2,3-3.86,4.56-5.72l.12.13q0,6.06-.09,12.12a.86.86,0,0,0,1.72.07c.06-3.42.08-6.84.08-10.26q3.51,3.93,7,7.88C505.12,78.73,506.4,77.56,505.67,76.74Z"/><polygon class="cls-2" points="441.51 85.5 444.56 85.5 449.36 85.5 453.99 85.5 453.11 83.43 451.01 78.48 445.31 78.24 440.52 78.24 440.97 81.54 441.51 85.5"/><path class="cls-2" d="M472.36,100.77h12.73a128.06,128.06,0,0,0-7.78-10.93h-9.19l1.47,3.79Z"/><path class="cls-2" d="M459.07,177l-2.89,6.82,8.84-.37a80.35,80.35,0,0,0,8.12-6.45H459.07Z"/><path class="cls-2" d="M475.21,161.69h-3.13l-4.25,10.94h9.84a95,95,0,0,0,7.4-10.94h-9.86Z"/><polygon class="cls-2" points="454.36 176.97 449.56 176.97 445.14 176.97 441.88 176.97 440.89 184.22 446 184.22 451.38 183.99 454.36 176.97"/><path class="cls-2" d="M447.52,189.54,447,191.7a49.34,49.34,0,0,0,9.52-3.38l-8.74.24Z"/><path class="cls-2" d="M435.91,188.56h-4.2l-.19,2.14-.26,2.92c2.73-.17,6.78-.47,11.05-1.07l.85-3.46.14-.53h-7.39Z"/><path class="cls-2" d="M419.37,188.56h-3.25v4.07c2.27.33,6.42.87,10.78,1.07l.15-1.71.3-3.43h-8Z"/><path class="cls-2" d="M411.78,191.63v-3.07l-8.84-.25A66.3,66.3,0,0,0,411.78,191.63Z"/><polygon class="cls-2" points="460.91 172.63 463.17 172.63 466.32 164.53 467.42 161.69 460.27 161.69 455.86 161.69 452.53 161.69 451.47 167.16 450.41 172.63 456.2 172.63 460.91 172.63"/><polygon class="cls-2" points="416.77 161.69 411.77 161.69 413.89 172.63 417.18 172.63 417.18 172.63 427.55 172.63 427.55 161.69 421.11 161.69 416.77 161.69"/><polygon class="cls-2" points="416.47 111.78 416.78 105.11 410.33 105.11 405.91 105.11 402.64 105.11 400.21 118.46 416.17 118.46 416.47 111.78"/><path class="cls-2" d="M484.16,118.47l7.54,0a140,140,0,0,0-4.19-13.41h-6.3Z"/><polygon class="cls-2" points="463.71 118.46 479.66 118.46 476.46 105.11 469.39 105.11 469.38 105.11 461.28 105.11 462.49 111.78 463.71 118.46"/><polygon class="cls-2" points="448.36 105.11 442.72 105.11 443.03 111.78 443.34 118.46 459.3 118.46 458.08 111.78 456.87 105.11 453.16 105.11 448.36 105.11"/><path class="cls-2" d="M481,157.35h6.29a140,140,0,0,0,4.19-13.4l-7.54.05Z"/><polygon class="cls-2" points="456.65 157.35 456.89 156.03 459.08 144.01 452.28 144.01 447.94 144.01 443.12 144.01 442.81 150.68 442.5 157.35 448.96 157.35 453.38 157.35 456.65 157.35"/><polygon class="cls-2" points="388.92 144.01 388.92 144.01 386.97 144.01 384.57 144.01 379.63 144.01 382.82 157.35 385.25 157.35 389.9 157.35 398.01 157.35 395.58 144.01 388.92 144.01"/><path class="cls-2" d="M492.56,122.87H472.71l.93,13,.27,3.75,18.17-.06A69.72,69.72,0,0,0,492.56,122.87Z"/><polygon class="cls-2" points="469.24 135.18 468.36 122.87 451.57 122.87 451.85 131.27 452.13 139.67 459.87 139.67 464.28 139.67 469.56 139.67 469.24 135.18"/><polygon class="cls-2" points="438.98 139.67 443.32 139.67 447.79 139.67 447.51 131.27 447.23 122.87 431.67 122.87 431.96 139.67 438.98 139.67"/><circle class="cls-2" cx="369.53" cy="61.03" r="2.12"/><circle class="cls-2" cx="560.56" cy="180.59" r="2.12"/><path class="cls-2" d="M298.92,144.78a3.29,3.29,0,1,0,3.29,3.29A3.29,3.29,0,0,0,298.92,144.78Z"/><circle class="cls-2" cx="522.52" cy="119.22" r="2.56"/><path class="cls-2" d="M476.21,222.85a12.69,12.69,0,0,1-6.27-7.73.58.58,0,0,0-1.15,0,12.69,12.69,0,0,1-6.27,7.73.83.83,0,0,0,0,1.42,12.72,12.72,0,0,1,6.27,7.73.58.58,0,0,0,1.15,0,12.72,12.72,0,0,1,6.27-7.73A.84.84,0,0,0,476.21,222.85Z"/><path class="cls-2" d="M345,153.74a15.56,15.56,0,0,1-7.67-9.46.72.72,0,0,0-1.41,0,15.59,15.59,0,0,1-7.67,9.46,1,1,0,0,0,0,1.73,15.59,15.59,0,0,1,7.67,9.46.72.72,0,0,0,1.41,0,15.56,15.56,0,0,1,7.67-9.46A1,1,0,0,0,345,153.74Z"/><path class="cls-2" d="M353.12,220.14a2.12,2.12,0,1,0,2.12,2.11A2.11,2.11,0,0,0,353.12,220.14Z"/><path class="cls-2" d="M329.69,60A4.26,4.26,0,1,0,334,64.24,4.26,4.26,0,0,0,329.69,60Z"/><circle class="cls-2" cx="515.97" cy="95.73" r="2.12"/><path class="cls-2" d="M544,191.16a3.29,3.29,0,1,0-3.29-3.29A3.29,3.29,0,0,0,544,191.16Z"/><path class="cls-2" d="M563.85,114.54a3.29,3.29,0,1,0-3.29-3.28A3.28,3.28,0,0,0,563.85,114.54Z"/><circle class="cls-2" cx="324.15" cy="142.86" r="2.12"/><circle class="cls-2" cx="304.33" cy="64.24" r="2.12"/><circle class="cls-2" cx="406.57" cy="225.74" r="2.12"/><path class="cls-2" d="M460,51.34a12.73,12.73,0,0,1,6.28,7.73.58.58,0,0,0,1.15,0,12.72,12.72,0,0,1,6.27-7.73.84.84,0,0,0,0-1.42,12.69,12.69,0,0,1-6.27-7.73.58.58,0,0,0-1.15,0A12.7,12.7,0,0,1,460,49.92.84.84,0,0,0,460,51.34Z"/><path class="cls-3" d="M166.81,76.47a4,4,0,0,0,1.79-1.75,19,19,0,0,0,2.51-4.93c.2-.69.13-1.79-.71-2.05s-1.59.62-2,1.21a24.86,24.86,0,0,0-3.28,6.14C164.66,76.25,165.94,76.81,166.81,76.47Z"/><path class="cls-3" d="M351.29,76.54c1.56-.92-.39-3.83-.93-4.92-.63-1.27-1.62-4-3.53-3.23-1.59.61.73,4.43,1.16,5.31S349.68,77.5,351.29,76.54Z"/><path class="cls-3" d="M364.13,76.4c.88-1-.64-4.3-1.15-5.38s-1.43-3.18-3.07-2.68c-.54.16-1,.42-1.58.58a40.13,40.13,0,0,1,2.74,5.39C361.49,75.28,362.64,78.11,364.13,76.4Z"/><path class="cls-3" d="M359.06,76.16c.58,0,.8-.71.84-1.14.1-1.22-.92-2.8-1.42-3.91-.24-.53-.65-1.94-1.15-2.15a1,1,0,0,0-1.22.6c-.55,1.39,1.08,3.59,1.68,4.78C358,74.83,358.4,76.12,359.06,76.16Z"/><path class="cls-3" d="M355.61,76.39c1.41-.73-.47-3.85-.91-4.72-.68-1.31-1.31-3.14-3-3.08-1.48.16.72,3.72.91,4.08C353,73.43,354.25,77.09,355.61,76.39Z"/><path class="cls-3" d="M346.11,76.68c1.49-1-.55-4.58-1.09-5.7-.86-1.75-1.87-3.75-4.12-3.5-1.91.44.77,4.86,1.18,5.64C342.63,74.2,344.25,77.92,346.11,76.68Z"/><path class="cls-3" d="M334.61,75.12c.43-.79-.34-2.25-.62-3.07a13.3,13.3,0,0,0-1.33-3,3.94,3.94,0,0,0-2.11-1.87c-.64-.15-1.69.09-1.79.91-.24,2,1.11,4.27,2.07,6C331.43,75.17,333.59,77,334.61,75.12Z"/><path class="cls-3" d="M340.19,76c1.76-1.28-.44-4.44-1.2-5.84-.48-.87-2.3-4.32-3.74-2.56-1.12,1.36.62,4.8,1.27,6.18S338.49,77.2,340.19,76Z"/><path class="cls-3" d="M188.3,74.93c0,.85.37,1.88,1.41,1.65,1.58-.35,2.28-2.64,2.7-3.91.2-.59,2.66-4.84.35-4.48-1.95.3-2.52,2.46-3.3,4A6.85,6.85,0,0,0,188.3,74.93Z"/><path class="cls-3" d="M178.67,75.9a1.65,1.65,0,0,0,1.63,1c1.94-.1,2.77-2.89,3.4-4.31.41-.93.76-1.9,1.24-2.81.36-.7.63-.76,0-1.33a1.59,1.59,0,0,0-1.46-.26c-1.19.31-1.64,1.7-2.2,2.67s-1.2,1.93-1.81,2.88C179.13,74.33,178.5,75.23,178.67,75.9Z"/><path class="cls-3" d="M173.65,75.6a1.6,1.6,0,0,0,1.78,1.31c1.58-.15,2.73-2.36,3.07-3.7.41-1.62,2.51-5.07-.57-4.91-1,0-1.63,1.07-1.91,1.85a25.87,25.87,0,0,1-1.58,3.16C174.05,74.06,173.48,74.74,173.65,75.6Z"/><path class="cls-3" d="M183.48,75.53c-.15,1,1.14,1.4,1.9,1.11,1.06-.41,1.58-1.83,2.16-2.66.74-1.07,2.07-3.09,2.1-4.43A1.35,1.35,0,0,0,188,68.33c-1.33.28-1.42,1.18-1.84,2.2s-.93,1.88-1.42,2.81A11.44,11.44,0,0,0,183.48,75.53Z"/><path class="cls-3" d="M169.7,75c0,.86.34,1.64,1.28,1.55,1.68-.17,2.49-2.86,3.11-4.1.45-.9.74-1.86,1.22-2.75.39-.7,1-1.66-.19-2.2-2.13-1-3.32,2.86-3.93,4.11C170.67,72.65,169.74,73.84,169.7,75Z"/><path class="cls-3" d="M192.54,76.28a1.83,1.83,0,0,0,2.19.6c2.12-.68,3.06-3.83,4-5.61.33-.66.93-1.52.64-2.3-.39-1-1.73-1-2.52-.51-1,.58-1.53,2-2.09,2.93s-1.25,1.94-1.82,2.94C192.51,75,192.05,75.56,192.54,76.28Z"/><path class="cls-3" d="M324.43,75.92c1.24,0,4,.36,4.13-1.56.06-.94-.72-2.35-1-3.24a19,19,0,0,0-1-2.28c-1-1.93-2.8-1.94-4.8-2-2.27-.09-4.54,0-6.81,0s-4.81,0-7.21-.18c-2-.13-3.87-.78-5.84-.83-4.5-.12-9-.06-13.52-.09-4.75,0-9.5,0-14.25,0q-3.72.06-7.43.08a32.64,32.64,0,0,0-6.18.18c-4.36.87-8.85.61-13.28.63-4.64,0-9.29.14-13.94.22s-9.5.06-14.25.06-9.59-.4-14.25.19c-2.35.3-3.43,2.46-4.52,4.32-.7,1.19-3,4.2-1.23,5.41a6.41,6.41,0,0,0,3,.46c1.24.06,2.49,0,3.74.18,2.27.24,11.28-.3,13.77.24a35.12,35.12,0,0,0,7.46.42c2.57,0,5.15,0,7.72,0a55.43,55.43,0,0,0,7.09-.64c4.68-.59,9.54-.33,14.25-.44,1.11,0,5.44-.67,6.51-.83A44.22,44.22,0,0,1,269,76l27.27-.14C305.63,75.84,315,76,324.43,75.92Z"/><path class="cls-3" d="M217.3,158.3a44.14,44.14,0,0,0-4.58-13.15,47.17,47.17,0,0,0-7.94-11.46c-3.17-3.33-7.56-4.78-11.6-6.72A30.3,30.3,0,0,0,179.33,124a51.67,51.67,0,0,0-6.81.82,42.73,42.73,0,0,0-6.47,1,43.82,43.82,0,0,0-21.44,15.34,22.39,22.39,0,0,0-3.47,5.64q-1,2.82-1.87,5.69a26.61,26.61,0,0,0-.85,7.45c-.06,2.41-.07,4.83,0,7.24a35.59,35.59,0,0,0,5.88,19.57,38,38,0,0,0,5.07,5.84c3.23,3.18,6.28,6.09,10.42,8.09a70,70,0,0,0,12.77,4.54,32.09,32.09,0,0,0,14.78.31,36.28,36.28,0,0,0,13-5.14c2.08-1.38,4-2.94,6-4.46a19.17,19.17,0,0,0,4.32-4.88,48.76,48.76,0,0,0,5.94-12.39,29.5,29.5,0,0,0,1.82-8.12c.06-1.89,0-3.79,0-5.68A44.78,44.78,0,0,0,217.3,158.3Zm-10.92,14.45c-3.4,6.05-8,10.94-12.95,15.75a88.64,88.64,0,0,1-7.91,6.85c-1.79,1.38-4.23,5.25-6.69,3.36-1.41-1.08-2.63-2.46-4-3.57-1.24-1-2.47-1.94-3.62-3-2.53-2.38-5.33-4.43-7.86-6.79s-4.83-4.63-7.09-7.06-4.92-5.14-6.24-8.19l-2.43-5.63c-.39-.92-.83-1.82-1.18-2.76a9.91,9.91,0,0,1-.4-3,60.47,60.47,0,0,1,0-6.17,7.11,7.11,0,0,1,2-5.12c2.49-2.71,5.42-5.71,9-6.85,3.25-1,7.32-.26,10.37,1.12a28.35,28.35,0,0,1,7.92,5.79c.8.78,1.66,2.22,2.95,2s2.29-1.29,3.09-2a50,50,0,0,1,4.18-3.79,29.24,29.24,0,0,1,4.18-2.29,17.92,17.92,0,0,1,4.56-1.66,8.42,8.42,0,0,1,4.11.17c3.32.72,5.5,2.82,7.79,5.19a16.28,16.28,0,0,1,4.5,8.56C211.61,160.23,209.58,167,206.38,172.75Z"/><path class="cls-3" d="M377.38,140.91c-1.58-1.75-3-3.67-4.68-5.36a32,32,0,0,0-5.49-4.26,39.67,39.67,0,0,0-12.52-5.7A38.18,38.18,0,0,0,348,125c-2-.11-4-.76-6-.81s-4,.58-6,.85a21,21,0,0,0-5.67,1.79c-3.92,1.73-8.28,3-11.39,6.12A42.63,42.63,0,0,0,311,143c-1.93,3.61-4.06,7.47-5,11.48a48.39,48.39,0,0,0-1.28,6.73c-.15,2-.74,3.85-.81,5.81-.15,4.44,1.06,8.8,2.41,13a36.74,36.74,0,0,0,5.34,11.12,27.28,27.28,0,0,0,5,5.44c1.65,1.28,3.27,2.61,5,3.78A38.63,38.63,0,0,0,333,205.65c4.08,1.1,8.63.71,12.81.65a26.46,26.46,0,0,0,6.39-1.29,53.65,53.65,0,0,0,6.1-1.86,44.88,44.88,0,0,0,18.27-13.56,32,32,0,0,0,5.51-9.76,38.25,38.25,0,0,0,1.6-6.32,42.62,42.62,0,0,0,.89-5.71C384.74,158.55,383.92,148.12,377.38,140.91Zm-.76,16.58a28.45,28.45,0,0,1-.91,5.55c-.78,2.11-1.94,4.08-2.79,6.16a15.69,15.69,0,0,1-2.25,4.31c-5.05,6.24-11.26,11.81-17.25,17.12-2.69,2.39-5.52,4.59-8.15,7.07-1.13,1.06-2.3,2.6-4,1.69a16.71,16.71,0,0,1-3-2.68c-2.6-2.43-5.55-4.4-8.12-6.85s-5.09-5-7.47-7.64a47.85,47.85,0,0,1-6.12-8.68c-1.58-2.84-3.39-6.11-4-9.33-.33-1.74-.67-3.52-.94-5.27a15,15,0,0,1,.47-4.85,16.21,16.21,0,0,1,4.51-8.85c2.11-2.29,4.57-4.84,7.82-5.19a13.11,13.11,0,0,1,6.28.55,35.52,35.52,0,0,1,8.35,4.84c1.51,1.19,4.21,5.21,6.41,4a17.24,17.24,0,0,0,2.31-2.14c.64-.57,1.29-1.12,1.95-1.68a23.86,23.86,0,0,1,4-2.94,15.53,15.53,0,0,1,4.63-1.56c1.46-.3,3-1,4.52-.76a15.5,15.5,0,0,1,8.47,4.29c2.29,2.05,4.75,4.09,4.94,7.34C376.37,153.8,376.89,155.67,376.62,157.49Z"/><path class="cls-6" d="M174.69,55.74c1.36-2.46.7-6,3-7.9,2.65-2.18,6.6-1.53,9.8-1.54,7.34,0,14.68-.32,22-.44s14.69-.06,22-.06c1.86,0,3.72,0,5.58,0,1.55,0,7.52-.18,9.15-.06s3.32.11,4.95.09c1.79,0,18.21-.09,19.89,0,3.55.12,7.11,0,10.67.09s7.23.32,10.85.37,7.45,0,11.18.07a49.2,49.2,0,0,1,5.15.14,43.67,43.67,0,0,0,4.71.63c7.25.06,14.45.36,21.71.09,1.8-.07,3.65,0,5.45-.23a39,39,0,0,1,4.19,0c1.63.15,3.35,0,4.91.54,1.38.5,1.83,1.51,2.28,2.81.53,1.56,1.37,7,3.86,6.6,1.71-.26,1.05-2.14.71-3.23-.49-1.59-1-3.18-1.51-4.76-1.11-3.25-2.51-6.41-3.75-9.61A7.66,7.66,0,0,0,349,35.58c-1.29-.86-2.59-.31-4-.12a55.6,55.6,0,0,1-10.24.06c-1.71-.1-8.05,0-9.59.08-3.61.24-7.3,0-10.92-.06s-7.24.09-10.86.16c-7.34.15-14.69-.06-22-.05l-22,0c-3.62,0-7.24,0-10.86-.08-1.92,0-3.85,0-5.77-.08-1.45-.07-7.4,0-9,0-1.86.07-3.72.11-5.58.1l-10.87-.06c-3.56,0-7.17.1-10.73-.1-1.58-.09-16.06.14-19.49.21l-5.9.14c-1.26,0-2.86-.17-4.05.39-1.38.66-1.66,2.69-2.1,4-.51,1.55-1,3.11-1.47,4.69s-.76,3.33-1.31,5-1,3-1.38,4.51C170.24,56.89,173.62,57.68,174.69,55.74Z"/><path class="cls-7" d="M292.82,114.82c-.55-2.86-4.44-2-6.58-2q-3.6.06-7.21.09c-9.68.06-19.36-.06-29,0-5.5,0-11.09-.17-16.58.16-3,.19-3,1.9-3,4.49,0,2.9,0,5.79,0,8.69,0,1.76-.72,5.48,1.28,6.47,1.13.56,2.64.28,3.84.26l4.34-.09a50.55,50.55,0,0,0,8.17-.38,42.5,42.5,0,0,1,7.89-.63c5.89,0,11.79,0,17.69,0s11.84.39,17.67-.22c1.29-.14,1.55-1.6,1.59-2.62.08-1.65,0-3.32,0-5v-5A25.14,25.14,0,0,0,292.82,114.82ZM278.32,126c-1.06,1-3.11.64-4.45.6-1.73-.06-3.46-.08-5.2-.08-5.54,0-11.2-.25-16.72.15-1.57.11-3.09.44-4.65.61a2.5,2.5,0,0,1-2.66-1.24c-.57-1-.5-2.4-.73-3.51s-.6-2.24.15-3.23,2.18-1,3.38-1.1l4.33-.18c3-.12,6.07-.14,9.11-.2,2.83-.06,5.57-.84,8.44-.84a24.23,24.23,0,0,1,8.25,1.1c1.44.52,1.41,2.52,1.48,3.78S279.31,125,278.32,126Z"/><path class="cls-7" d="M141.33,85.94c4.65,0,9.31,0,14-.21a20.72,20.72,0,0,0,3.84-.43c.86-.19,7.53.43,8.44.46,4.43.13,9.3-.47,13.61.64s9.14.51,13.53.55c4.73,0,9.46.1,14.2-.08,2.18-.08,4.23-.72,6.39-.85s4.41-.14,6.62-.2l7.34-.2c2-.05,3.94-.62,6-.79,4.5-.37,9.09-.1,13.61-.11,9.4,0,18.82.16,28.23.06,4.65,0,9.37,0,14-.36,2.18-.18,4.16-.85,6.36-.92s4.55-.15,6.82-.14c4.76,0,9.51.09,14.27.12l7.45,0a30.56,30.56,0,0,1,6.27.31c4.4.94,9,.77,13.5.87a55,55,0,0,1,6.16.84,60.52,60.52,0,0,0,6.46.18c9.25.16,18.36,0,27.61.16,1.43,0,2.92.16,4.34,0a3.11,3.11,0,0,0,1.9-.51c1.09-1.09-.86-3.91-1.38-4.94-2.11-4.16-4-8.49-6.39-12.52-.93-1.58-2.13-4.26-4-4.78A59.82,59.82,0,0,0,374.18,62c-1.09-.17-2.2-.16-3.28-.36s-2-.61-3-.78a46.25,46.25,0,0,0-6.45-.18c-4.76-.11-9.5.09-14.26.06s-9.3-.38-13.95-.36c-2.38,0-4.76,0-7.14,0-2,0-3.81-.56-5.76-.72-2.38-.21-4.81-.05-7.19-.1s-4.55-.24-6.83-.24c-9.67,0-19.35,0-29-.07-4.79,0-9.61-.17-14.4.12-2.48.16-5,.22-7.44.22a35,35,0,0,0-6.31.23c-1.09.21-10.34.37-12.31.19-4.46-.42-8.91-.4-13.41-.4-2.18,0-4.4-.13-6.58,0-2,.14-14.86-.38-19.33-.37s-9.24-.17-13.67.67c-2.08.4-8.4-.28-9.44-.5a13,13,0,0,0-2.72-.14c-4.75,0-9.51.1-14.26.1-2.48,0-5-.18-7.44-.13-1.9,0-4.21-.16-5.9.85s-2.58,3.53-3.52,5.25q-1.65,3-3.28,6c-2.12,3.9-4.74,7.92-6.13,12.15C130.08,86.83,140.05,85.94,141.33,85.94Zm24.49-16.27c.74-1.27,1.46-3,2.71-3.83a8.12,8.12,0,0,1,4.11-1c3.5-.21,7-.13,10.53-.14l21.71,0c6.83,0,14.09,0,21.09,0,3.51,0,7,0,10.54-.13,3.31-.13,6.56-.86,9.85-.93,14.36-.29,28.75-.59,43.1-.32,3.62.06,7.24.14,10.86.19,1.86,0,3.72,0,5.58.1a29.85,29.85,0,0,1,4.42.67c3.36.59,7,.13,10.38.23s7,0,10.54,0c3.72,0,7.45.13,11.16.25a43.08,43.08,0,0,1,5.21.25c1.42.22,2.76.66,4.21.77,1.79.14,3.58.17,5.37.25,1.46.07,3.5-.19,4.76.64s1.83,2.51,2.47,3.73a48.53,48.53,0,0,1,2.09,4.44c.45,1.14,1,3-.15,3.9s-3.35.49-4.64.51c-3.62,0-7.24.09-10.86.06-7.23,0-14.47-.17-21.7-.24-3.52,0-7,0-10.55-.07a32.36,32.36,0,0,1-4.72-.57,36.65,36.65,0,0,0-5.13-.25c-7.13-.06-27.72,1.22-31,.74a67.93,67.93,0,0,0-10.47-.11c-3.36.56-7,.31-10.37.39l-10.54.28c-3.33.08-6.52.81-9.86.82H226a33.39,33.39,0,0,1-5.1-.07c-1.6-.24-11.79-.69-15.31-.7-7.23,0-14.47-.29-21.7-.21-3.62,0-7.24.06-10.86,0-3.1-.06-7.32.44-10-1.53C161.33,76.49,165.05,71,165.82,69.67Z"/><path class="cls-7" d="M291.84,138.78c0-2,0-4.65-2.74-4.45-1,.08-2,.43-3,.47-1.36.06-2.73.12-4.1.15a49.68,49.68,0,0,1-7.1-.74,69.43,69.43,0,0,0-7.36-.18c-4.75-.06-9.51-.11-14.26,0-2.16.07-4.19.69-6.33.86s-4.41.12-6.61.19a51.66,51.66,0,0,0-7,.4,3.22,3.22,0,0,0-3,3c-.47,4.37-.94,8.63-1,13,0,4.71,0,9.43.09,14.14,0,2.23.62,4.3.78,6.49s.11,4.18.15,6.26c.1,4.43-.09,8.93.82,13.28a35.88,35.88,0,0,1,.27,6.8,54.15,54.15,0,0,1-.67,6c-.17,1.69-.47,4.49.9,5.74s4,.89,5.7.93c4.47.11,9,0,13.44-.12,2.24-.07,4.37-.69,6.57-.81s4.39-.14,6.58-.15c4.75,0,9.51,0,14.26,0,2.48,0,5,0,7.44,0,1.66,0,3.68.23,4.82-1.22,1.28-1.64,1-4.43.94-6.4a40.63,40.63,0,0,0-.72-6c-.7-4.48-.21-9.29-.18-13.81a35.82,35.82,0,0,1,.41-6.79,27.63,27.63,0,0,0,.46-6.16C291.13,159.46,291.92,149.11,291.84,138.78Zm-45.45.43c.82-1.06,2-1,3.18-1,1.64-.06,3.28,0,4.93-.06,2.77,0,5.55-.12,8.32-.32s5.66-.9,8.55-.93c2.17,0,5.37-.26,6.95,1.6,1.06,1.25,1,4.08-.46,5a13.4,13.4,0,0,1-4.07,1.15,21.14,21.14,0,0,1-3.46.35c-2.72.12-5.44.27-8.16.27-2.42,0-4.86-.09-7.27.05-2.15.13-4.9,1.46-6.91.28a3.91,3.91,0,0,1-2-2.49C245.8,142,245.67,140.15,246.39,139.21ZM286,201.68c-.47,2.23-2.41,2.72-4.34,2.5a12.29,12.29,0,0,0-3.53.17,27.92,27.92,0,0,1-4,.1c-2.27,0-4.25-.58-6.5-.75s-4.31,0-6.46-.06H246.89a37,37,0,0,0-6.9.3c-1.69.32-3.73.11-4.16-2s0-4.77.18-6.82a22,22,0,0,1,.56-2.53c.22-1,.16-2,.34-3,.26-1.44,1.06-1.82,2.45-1.95,2.09-.18,4.21,0,6.3-.28a54.6,54.6,0,0,1,6.4-.81c2.09,0,4.19.08,6.2.07a33.65,33.65,0,0,1,6.81.26,34.28,34.28,0,0,0,6.15.61c2.48.05,5,.11,7.45.18,1.8,0,4.51-.39,6.15.43,2,1,1.36,3.86,1.35,5.66C286.15,196.29,286.52,199.23,286,201.68Zm2.62-25.26c0,1.16.12,2.72-.66,3.71s-2.44,1-3.62,1c-3.28.25-6.6.11-9.89.12a40.39,40.39,0,0,0-7.93.57,9.69,9.69,0,0,1-3.51-.28,25.61,25.61,0,0,0-3.92-.18,45.35,45.35,0,0,0-7.9.53,60.89,60.89,0,0,1-8.11.48c-1.79.08-6.13.81-7.08-1.21-.49-1.06-.27-2.72-.29-3.84,0-1.32-.07-2.63-.11-4a40.45,40.45,0,0,0-.29-4.26c-.17-1.14-.56-2.23-.66-3.38-.26-2.77-.1-5.64-.12-8.43,0-2.31-.7-5.21,2.27-5.61a79.48,79.48,0,0,1,8.73-.26,70.85,70.85,0,0,0,7.72-.81c2.72-.33,5.56-.19,8.29-.26,5.65-.14,11.05-.13,16.7-.13h4.34c1.18,0,2.91-.21,4,.38,1.82,1,1.18,4.86,1.85,6.6.49,1.29.16,3.27.17,4.63,0,1.54.05,3.09.07,4.64C288.7,169.83,288.72,173.13,288.61,176.42Z"/><path class="cls-7" d="M286.47,212.38c-2.44,0-4.89.06-7.33.07a30.12,30.12,0,0,0-3.68.16c-1.16.15-2.25.54-3.42.59-2.39.11-4.8.07-7.2.1-9.19.1-18.4.37-27.59.2-1.6,0-4.54-.62-5.81.66-1.09,1.09-.48,3.28.78,4,1.59.89,3.55-.43,5.24-.26,1,.09,2,.48,3.09.54s1.93,0,2.89.06c8.58.11,17.15.19,25.72.36,4,.09,8.07,0,12.1-.18,2.7-.11,10,.71,10.18-3.45C291.57,212.14,288.71,212.36,286.47,212.38Z"/><path class="cls-7" d="M294.24,105.09c.1-2.68,0-5.37-.05-8L294,92.7a12.17,12.17,0,0,0-.21-3.08c-.69-2.3-3.45-1.85-5.34-1.84q-16.41.09-32.82.19c-4.51,0-9.34-.39-13.79.43a30.1,30.1,0,0,1-6.55.8c-1.76,0-4.68-.56-5.64,1.37-.84,1.71-.46,4.74-.2,6.57a40.71,40.71,0,0,1,.77,6.32c0,1.89-.7,5.11.87,6.52,1.31,1.18,3.86.65,5.45.62l7.43-.17,3.1-.07c.75,0,2.1.22,2.73-.36s.36-1.24.2-1.9a31.82,31.82,0,0,1-.52-3.2,4,4,0,0,0-.8-2c-.47-.7-1.16-1.19-1.59-1.88-1-1.61.32-3,1.26-4.15s.8-2,.85-3.43c0-1,.21-2.21,1.42-2.46a1.77,1.77,0,0,1,1.7.6c1.16,1.42,0,3.69,1.47,5.12s2,2.88,1.16,4.78a10.52,10.52,0,0,0-1.09,2.75c-.14,1-.09,2-.25,2.94s-.67,2,.09,2.81c.62.63,1.78.56,2.59.59,2.23.06,4.46,0,6.69,0,4.76,0,9.49-.14,14.24,0,1.34.05,5.56.69,6.22-.74.25-.55-.26-1.59-.37-2.18-.21-1.17-.11-2.42-.39-3.57-.47-1.9-2.71-2.71-3.19-4.62s.79-2.7,2.14-3.82c1.11-.91,1-2,1.28-3.32.15-.74.33-1.33,1.18-1.54,2-.48,2.08,1.79,2.35,3,.41,1.93,2.59,2.68,3,4.48s-1.59,3.08-2.33,4.55a8.7,8.7,0,0,0-.54,3.55,7.63,7.63,0,0,0,.06,2.78c.69,1.88,3.78,1.46,5.26,1C294.25,109.58,294.17,107.08,294.24,105.09Zm-52.76-8.63A13.75,13.75,0,0,1,240,98.55c-1.16,1.55-.75,4.19-.42,6a4.34,4.34,0,0,1,0,2.78c-.31.75-.89,1.57-1.75.94-1.35-1-1-4.3-1.08-5.72-.08-1.92-.23-3.54-2-4.62-1.15-.72-3-2.23-1.78-3.75.51-.63,1.41-.68,2.07-1.08s1.14-1.3,1.81-1.67c1.15-.61,2.43.89,3.21,2.09,1,.12,2.27.12,2.2,1.36A2.89,2.89,0,0,1,241.48,96.46Zm24.56.28a5.31,5.31,0,0,0-1.87,4.47c0,1.87.57,4.94-.62,6.54-1.53,2-2.56-1.25-2.67-2.46-.19-2.1.37-4.69-.29-6.71-.58-1.76-2.85-2.24-3.15-4.19-.27-1.75,2.24-2.49,3.5-3.09,1.92-.92,3.2.11,4.85,1.22S267.41,95.4,266,96.74Zm11,12c-1.4.64-4.44,1-5.82.14s-2.06-2.28-1.05-3.76a6.42,6.42,0,0,0,1.34-2.54,23.85,23.85,0,0,0,.12-3.59c0-1.24.05-2.48.07-3.72a11.81,11.81,0,0,1,.16-3.47c.78-2,3-.89,3.33.7.86,4-1.34,9.12,2.23,12.1C278.83,105.79,278.93,107.86,277,108.73Z"/><path class="cls-7" d="M389.22,89.15c-2.25,0-4.49,0-6.73-.07a28.38,28.38,0,0,1-3.06-.17,49.25,49.25,0,0,0-5.54.17c-1.05.11-2.12.1-3.17.12-4.65.08-9.31.09-14-.06-4.15-.13-8.16-1-12.32-1.09-8.08-.2-16.12,0-24.19.18-4.13.08-8.27-.15-12.4-.29-2-.07-4,0-6-.24-1.26-.15-2.74-.83-3.95-.22-1.66.85-1.5,2.62-1.46,4.22,0,1.86.09,3.72.1,5.58,0,2.07,0,4.13,0,6.2,0,1.6-.5,4.09.44,5.49s3,1.39,4.53,1.48c2,.11,3.92.16,5.88.2,4,.09,8,.11,12,.18a30.88,30.88,0,0,1,5.83.64,33.65,33.65,0,0,0,5.32.34c4,.14,8.06,0,12.09-.08,8.16-.06,16.31-.2,24.47-.09s16.15.44,24.21.32c2.19,0,3.22-.64,3.34-2.9.11-2,.22-3.92.21-5.88a113.7,113.7,0,0,0-.52-12.38C394.07,88.62,390.61,89.16,389.22,89.15ZM312.37,100.7c-.44,3-3.47,4.77-6.39,4.56-3.33-.23-5-3.61-4.52-6.66.54-3.33,3.87-4.61,6.89-4.15S312.78,97.84,312.37,100.7Zm15.43.06A6,6,0,0,1,325,104c-2.52,1.48-5.63,1.86-7.64-.68a5.73,5.73,0,0,1,1-7.68,5.81,5.81,0,0,1,8,.81C327.29,97.6,328.28,99.3,327.8,100.76Zm14.83.48a6.4,6.4,0,0,1-3.1,3.16,4.58,4.58,0,0,1-4.72.16,7.18,7.18,0,0,1-2.95-3.24c-1.27-3.08.6-5.83,3.38-7.09a5.36,5.36,0,0,1,7,2.59C343,98.4,343.39,99.55,342.63,101.24Zm49.26,3.6c-.08,1.58-.25,3.12-1.85,3.91s-4,.42-5.77.38c-7.9-.17-15.77-.27-23.67-.2-3.73,0-8.17.55-11.5-1.6-1.35-.87-1.43-2.38-1.47-3.84-.07-2.07-.09-4.14,0-6.2,0-1.57,0-3.2,1.78-3.85,1.59-.59,3.91-.24,5.59-.27,4-.08,8.06-.1,12.09-.2,1.88,0,8.94,0,10.64.15,3.74.28,7.85-.51,11.51.38,1.74.43,2.47,2.65,2.59,4.21A56.56,56.56,0,0,1,391.89,104.84Z"/><path class="cls-6" d="M129.27,216.72c1,1.15,2.83.89,4.17.91a21.18,21.18,0,0,1,4.5.42,39.84,39.84,0,0,0,9.45.68c6.93,0,13.84-.3,20.77-.17,13.63.26,27.3.34,40.92.05,3.51-.07,7-.2,10.54,0,2.17.11,6.93,1.26,8.34-1.05.78-1.26.48-3.33.47-4.76l0-5-.09-10.54q0-5.11-.08-10.23a47,47,0,0,0-.68-9.56c-.67-3.13-.45-6.51-.52-9.7q-.1-5.21-.14-10.41,0-5.35,0-10.73a74,74,0,0,1,.37-10,33.23,33.23,0,0,0,.71-4.3c0-1.6.05-3.22,0-4.83s-.48-3-.66-4.57.46-3,.35-4.4a8.42,8.42,0,0,1,.07-2.35,3.44,3.44,0,0,0,.09-1.85c-.46-1.23-1.84-1.3-3-1.34a53.23,53.23,0,0,0-10.1.15,36.26,36.26,0,0,1-4.38.69c-1.67.07-3.33.07-5,.09-3.48,0-7,.06-10.42,0-6.95,0-13.9-.12-20.85-.13-3.15,0-6.09-.88-9.23-.87q-5.12,0-10.23.11a34.16,34.16,0,0,0-4.4.57,40.3,40.3,0,0,1-4.53.23,85.9,85.9,0,0,0-10.27.46c-1.62.24-3.23.61-4.84,1a2.3,2.3,0,0,0-2.1,2.24c-.44,3.18-.07,6.62-.1,9.83,0,3-.91,5.87-1,8.9-.08,3.41,0,6.81.08,10.22.06,7-.1,14-.1,20.94s0,13.87,0,20.8c0,3.45,0,6.9,0,10.35.06,3.14,1,6.07,1,9.2,0,1.76,0,3.51.09,5.27C128.62,214.23,128.48,215.76,129.27,216.72Zm7-3.55c-2-.64-.94-3.18.89-3C139.28,210.3,138.41,213.84,136.32,213.17Zm84.23-2.44c-2.28.06-1.68-3.2.37-3C223.12,208,222.41,210.68,220.55,210.73ZM223,118.31c1,.46,1,1.1.3,2a1.87,1.87,0,0,1-2.34.72C218.43,119.87,220.92,117.37,223,118.31Zm-78.5,18a47.51,47.51,0,0,1,10-9.25c5-3.18,10.78-4.47,16.43-5.89a31.9,31.9,0,0,1,7.75-.58,59.22,59.22,0,0,1,6.25.18,36.91,36.91,0,0,1,11,3.41c8.13,3.67,16,10,20,18.2,1,2.12,2.14,4.2,3.17,6.33a34.38,34.38,0,0,1,2.15,6.67,36.75,36.75,0,0,1,.63,7.48c.09,2.5.09,4.82,0,7.33a39.88,39.88,0,0,1-3.6,14.34,59.4,59.4,0,0,1-3.51,6.29,29.73,29.73,0,0,1-3.63,5.63,56,56,0,0,1-11.17,8.87,29.4,29.4,0,0,1-6.41,2.76,25.6,25.6,0,0,1-7.11,1.68c-5,.21-10.55.42-15.44-1a84.46,84.46,0,0,1-13.77-5.23,40.41,40.41,0,0,1-11.74-8.89,41.08,41.08,0,0,1-7.64-11.71A44.12,44.12,0,0,1,135,169c-.06-1.29-.09-2.59-.17-3.88-.08-1.13-.45-2.19-.54-3.31a13.48,13.48,0,0,1,.55-3.38,30.14,30.14,0,0,0,.28-3.56,21.24,21.24,0,0,1,1.9-7.15,24.9,24.9,0,0,1,3.39-5.9C141.83,140,143,138.07,144.52,136.33Zm-9.45-16.91c2.2-.68,2.82,3.17.59,3.34A1.71,1.71,0,0,1,135.07,119.42Z"/><path class="cls-7" d="M183,176.61c-2.15,3.17-4.26,6.36-6.38,9.55-.7,1.06-1.87,2.34-1.69,3.72s1.36,2.2,2.42,1.3a27.1,27.1,0,0,0,3.44-4.35c1-1.33,1.95-2.69,2.87-4.09l6.51-9.83a89.93,89.93,0,0,0,5.55-8.9c1.63-3.23,3.57-6.32,5.44-9.42.76-1.25,2.17-2.69,2.51-4.13.23-1-.55-2.53-1.77-2.27s-2.63,2.86-3.33,3.82a27.83,27.83,0,0,0-2.58,4.2c-1.7,3.51-4.31,6.65-6.28,10C187.59,169.8,185.27,173.19,183,176.61Z"/><path class="cls-7" d="M390.69,220.13c-3.3-.76-6.88-.28-10.26-.26q-7.14,0-14.27-.05c-2.49,0-5,0-7.45,0a39.64,39.64,0,0,0-6.54.29,38.45,38.45,0,0,1-6.51-.14,59.45,59.45,0,0,0-6.68-.11c-9.54-.21-19-.4-28.55-.11a44.41,44.41,0,0,0-6.92.39,33.94,33.94,0,0,1-6,.59c-4.7.08-9.4.24-14.1.28-2.36,0-17.18.09-19.34.05s-4.5,0-6.75,0H243c-2.44,0-4.91-.11-7.34,0-1.91.1-3.69.77-5.61.82-2.45.07-4.93.13-7.37.06-2-.06-9.94-.09-12.06-.05s-4.53,0-6.79,0c-9.41,0-33.82-.67-34.69-.78a54.34,54.34,0,0,0-6.51-.08c-4.44,0-9.26-.52-13.62.35-2.13.43-4-.28-6.12-.36s-4.21-.19-6.2-.19-5.09-.56-6.8.42-1.39,3.44-1.16,5.06c.68,4.68,6.75,2.77,9.8,2.52,4.63-.37,9.34-.15,14-.11a94.38,94.38,0,0,1,13.56.63c4.6.71,9-1,13.6-.44,2.28.28,4.46.6,6.78.74s4.54.22,6.82.21l14.27,0h14c2.38,0,4.76,0,7.14,0s4.75-.4,7.13-.31c4.65.18,9.28,0,13.94.25a89.13,89.13,0,0,0,14.24-.28c2.36-.25,11.16,0,13.27.07s4.39-.58,6.62-.73,4.41-.06,6.61-.08c2.4,0,4.8,0,7.19-.12a51.68,51.68,0,0,0,6.21-.94,37.82,37.82,0,0,1,7-.11c1.1,0,2.2.21,3.3.25s1.92-.18,2.88-.23c2.47-.12,5,0,7.44,0,2.07,0,4.1.56,6.15.36a42.38,42.38,0,0,1,7.21-.33c1.95.14,7.48.05,8.41.08s2,.59,3.09.68c1.93.16,10.31-.95,12.61-.52.9.17,1.77.52,2.68.62a29,29,0,0,0,3.36,0q7.14,0,14.28,0c1.15,0,2.33.05,3.48,0s2-.49,3.05-.62c1.65-.21,3.78.52,4.35-1.68.28-1.12,1-4.59,0-5.5C392.7,220.31,391.26,220.26,390.69,220.13Z"/><path class="cls-7" d="M150.21,158.9c.75.58,2.56-2.52,3-3.13,2-2.62,3.87-5.32,5.86-8,.7-.93,2.6-2.86.68-3.47-1.49-.48-2.31.57-3.09,1.63-2,2.78-4.08,5.53-6.07,8.35a4.36,4.36,0,0,0-.7,2.33C149.89,157.14,149.76,158.55,150.21,158.9Z"/><path class="cls-7" d="M330.46,180.33c-1.64-2.43-3.25-4.88-4.72-7.42s-2.85-5.1-4.43-7.56c-.84-1.32-1.71-2.62-2.59-3.91-.6-.89-1.21-2.21-2.38-2.44,0,3,1.38,6,2.6,8.73a55.48,55.48,0,0,0,4.26,7.65c.83,1.26,9.91,13.63,11.14,12.3.77-.82-.78-2.6-1.18-3.23C332.27,183.07,331.37,181.69,330.46,180.33Z"/><path class="cls-7" d="M169.53,178c-.52.76-1.05,1.5-1.59,2.24s-1.3,1.42-1.41,2.16a2.24,2.24,0,0,0,2.52,2.24c1.27-.26,2.35-1.85,3.08-2.82,2.15-2.81,4-5.88,6-8.83,3.75-5.66,7.14-11.53,10.7-17.31,1.75-2.84,3.36-5.77,5.21-8.55.56-.83,1.78-2.29.48-3a3.74,3.74,0,0,0-3.8.9,32.07,32.07,0,0,0-3.08,4.9q-1.31,2.1-2.62,4.19c-2,3.14-4.09,6.19-6,9.34-2.11,3.36-3.91,7-6.22,10.21C171.67,175.15,170.54,176.53,169.53,178Z"/><path class="cls-7" d="M154.34,166.18a4.67,4.67,0,0,0-.62,3.15c.24,1.09.82,1.39,1.77.73,2-1.35,3.3-4.24,4.6-6.17l4.44-6.66c1.41-2.12,3-4.2,4.18-6.44a4.6,4.6,0,0,0,.89-2.55c-.09-.73-1-1.69-1.7-.89a102.33,102.33,0,0,0-9.42,12.51A58.18,58.18,0,0,0,154.34,166.18Z"/><path class="cls-7" d="M160.61,174.08a3.66,3.66,0,0,0-.64,3,1.38,1.38,0,0,0,2.39.57,15.82,15.82,0,0,0,2.3-3.3l2.32-3.45c1.66-2.48,3.26-5,4.73-7.57,1.32-2.31,2.77-4.55,4.1-6.86.48-.84,1.4-2,1.29-3.06s-1-1.57-1.85-.68c-3.74,4.12-6.85,9.13-9.93,13.76C163.67,169,162.09,171.52,160.61,174.08Z"/><path class="cls-6" d="M395.49,167.16a17.7,17.7,0,0,1-.56-4.28V152.33c0-3.16-.39-6.6.36-9.69a39.51,39.51,0,0,0,.57-9.73,24.33,24.33,0,0,0-.74-4.41,25.34,25.34,0,0,1-.18-4.85c0-1.75.05-3.52-.06-5.27-.07-1.2,0-2.59-1.23-3.28s-3.5-.58-4.89-.7c-1.65-.14-3.3-.16-5-.19-3.51-.06-7-.11-10.54-.14-7,0-14.07-.12-21.1-.15s-14.06.17-21.09.1c-3.4,0-6.8-.06-10.2-.15a34.22,34.22,0,0,1-4.83-.67,27.53,27.53,0,0,0-4.45-.2c-3.51,0-7,0-10.54,0-1.42,0-3.5-.37-4.78.39s-1.12,2.21-1.13,3.43q-.08,10.39-.13,20.79L295,148.11c0,3.28.28,6.79-.32,10-1.22,6.52-1,13.34-1,20,0,6.36.19,12.72.26,19.08,0,3.08,0,6.16,0,9.24-.08,2.91-.68,6.15,0,9s4.93,1.92,7.2,1.86l5.58-.13a34.18,34.18,0,0,0,4.28-.61,73,73,0,0,1,9.92-.37c3.52-.06,7,.08,10.55.15,1.78,0,3.57,0,5.34.14,1.41.1,2.75.51,4.15.62a37.5,37.5,0,0,0,9.76-.22c1.42-.27,2.65.22,4.08.1a79,79,0,0,1,9.36.15,33.17,33.17,0,0,0,4.56.23c7,.05,14.07,0,21.1-.09,1.29,0,2.7,0,3.76-.83s1-2.22,1.13-3.49c.24-3.49.26-7.05.17-10.55s-.25-7-.19-10.54a97,97,0,0,1,.39-10.23c.2-1.55.78-3,.84-4.56s0-3.31,0-5A20.91,20.91,0,0,0,395.49,167.16ZM299.4,118.34a1.67,1.67,0,0,1,2.16-1c2,.88.58,4.94-1.28,3.55A2.1,2.1,0,0,1,299.4,118.34Zm.83,92.35c-1.91-.67-1-3.1.76-3.16C303.21,207.46,302.58,211.51,300.23,210.69Zm84.12,3.85c-2.77-.06-2.71-4.43,0-4.43C387.29,210.1,387.24,214.61,384.35,214.54ZM388,168.11a65.94,65.94,0,0,1-1.11,7.24A31.61,31.61,0,0,1,386,179a32.6,32.6,0,0,1-.95,3.65c-1.89,4.76-5.18,9.16-8.55,13a46.84,46.84,0,0,1-5.49,4.73,30.61,30.61,0,0,1-6.4,3.86,85.69,85.69,0,0,1-13.48,5c-4.63,1.3-10.06.89-14.82.75a22,22,0,0,1-6.51-1.35,34.05,34.05,0,0,1-6-2.19,45.89,45.89,0,0,1-5.79-4.1c-1.75-1.35-3.55-2.56-5.16-4.07-3.27-3.07-5.1-6.93-7.16-10.85a47.14,47.14,0,0,1-3.05-6.9c-.71-2.12-.89-4.27-1.39-6.42a38,38,0,0,1-.66-13.69c.17-1.2.63-2.32.81-3.51s.21-2.11.46-3.16a30.49,30.49,0,0,1,2.36-6,55,55,0,0,1,7-11.46,42.07,42.07,0,0,1,9.41-8.08,36.76,36.76,0,0,1,6.14-3.74,49.1,49.1,0,0,1,6.78-2.28,34.46,34.46,0,0,1,6.26-1.22c2.39-.12,4.84-.12,7.23,0a52.25,52.25,0,0,1,6.67,1.15,41,41,0,0,1,6.42,1.85,35.87,35.87,0,0,1,6.53,2.72,30.28,30.28,0,0,1,4.76,3.51,64.07,64.07,0,0,1,5.1,4.48,42.33,42.33,0,0,1,3.77,5.06c2.73,4,5.62,7.75,6.61,12.63a52.33,52.33,0,0,1,1.21,7.57C388.2,162.52,388.13,165.34,388,168.11Zm-1.52-44.35c-2.59-1.22.05-3.78,2.14-2.89S388.43,124.68,386.49,123.76Z"/><path class="cls-7" d="M343,181.89c-2.28-3.44-4.89-6.66-7.12-10.13-1.84-2.86-3.28-5.94-5.13-8.8-1.95-3-3.75-6.05-5.58-9.11-.79-1.33-4.25-7.62-5.87-4.46-.8,1.58.8,3.39,1.57,4.69s1.73,2.87,2.6,4.3c3.75,6.15,7.21,12.44,11.13,18.5,1.95,3,4,5.93,6.1,8.83.87,1.2,4.66,7.53,6.45,5.83s.06-3.13-.91-4.65S344.12,183.54,343,181.89Z"/><path class="cls-7" d="M365.18,145.3c-.73-.69-2.49-1.54-3.36-.58s1.27,3,1.86,3.83q1.65,2.25,3.32,4.48c1.12,1.52,2.2,3.09,3.4,4.55.45.55,2.5,2.85,2.59.84.16-3.32-3.07-6.6-4.85-9.14A26.35,26.35,0,0,0,365.18,145.3Z"/><path class="cls-7" d="M350.3,174.59c-2.28-3.13-4.06-6.54-6.17-9.78s-4.07-6.43-6.09-9.66c-1.8-2.88-3.45-5.93-5.35-8.73a4.25,4.25,0,0,0-3.54-2.24c-.91-.05-2.11,0-1.95,1.23.21,1.49,1.9,3,2.77,4.1a39.63,39.63,0,0,1,2.4,4.08c3.55,5.95,7.26,11.8,10.77,17.77,1.78,3,3.84,5.88,5.89,8.74a33,33,0,0,0,3.16,4.18c1.18,1.18,2.12,1.57,3.2.08,1.24-1.72-.7-3.81-1.66-5.2C352.65,177.6,351.42,176.13,350.3,174.59Z"/><path class="cls-7" d="M356.21,165.46q-2.52-3.74-5.09-7.43c-.73-1.06-1.5-2.07-2.31-3.07-.51-.64-1.32-1.87-2.24-1.94-2.91-.23.25,4.28.73,5,1.55,2.42,3.12,4.78,4.53,7.28,1.31,2.32,2.87,4.48,4.31,6.71.75,1.15,1.52,2.29,2.32,3.4.66.92,1.6,3,2.94,2.89,3.49-.36.19-4.65-.57-5.84C359.33,170.12,357.78,167.79,356.21,165.46Z"/><path class="cls-7" d="M362.25,157.33c-1.47-2.1-3-4.18-4.49-6.24-.73-1-2.83-4.75-4.42-3.54-1.9,1.44,1.05,4.34,1.89,5.61q2.19,3.33,4.4,6.66c1.47,2.23,2.95,4.44,4.43,6.66.63.94,2.9,5.55,4.54,3.79s-.92-4.9-2-6.5C365.16,161.62,363.72,159.46,362.25,157.33Z"/><path class="cls-7" d="M192.09,180.13c-.71,1.1-1.41,2.21-2.15,3.31-.46.67-1.93,2.14-2,2.94-.09,2.23,4-2,4.46-2.45a44.8,44.8,0,0,0,4.58-5.34,54.64,54.64,0,0,0,7.12-12.17c.79-2.08,1.56-4.23,2.16-6.36.23-.81.41-1.88-.67-1.4-.79.35-1.36,1.51-1.79,2.2-2.73,4.5-5.61,9-8.1,13.62C194.68,176.46,193.31,178.25,192.09,180.13Z"/><path class="cls-7" d="M128.34,106.48c-.05,1.64-1.48,3.79.21,5,1.43,1,4.3.44,6,.41,2.28,0,4.55-.08,6.83-.16A47.06,47.06,0,0,0,148,111a37.4,37.4,0,0,1,6.35-.24c4.75,0,9.52-.12,14.27,0,2,.06,4,.42,5.93.47s3.62-.5,5.46-.48a50.28,50.28,0,0,1,5.58.79,43.79,43.79,0,0,0,5.84.09,31.83,31.83,0,0,0,6.18-.36,25.8,25.8,0,0,1,5.55-.47c3.74,0,7.48,0,11.22-.15,3.48-.13,7,.1,10.5-.15,1.35-.1,2.71-.73,2.89-2.24a12,12,0,0,0-.36-2.77,26.69,26.69,0,0,1-.12-3.1q0-3.4-.11-6.83c0-1.48.32-4-.58-5.28-1.13-1.56-3.77-1.06-5.43-1.07l-6.21,0c-8.48,0-17,.32-25.45,0-4.11-.13-8.23,0-12.35-.14-2-.06-3.8-.61-5.74-.78s-4-.18-6-.21c-4.09-.07-8.2.12-12.29.16-2,0-3.94.67-6,.77s-3.93,0-5.89.06-4-.07-6,.12A36.2,36.2,0,0,0,130,90.36c-2,.49-2.39,1.52-2.43,3.47s0,4.14,0,6.21a18.15,18.15,0,0,0,.23,3.29A15.38,15.38,0,0,1,128.34,106.48Zm81.9-8.42a5.67,5.67,0,0,1,2.52-3.14,6.78,6.78,0,0,1,8,1.63,5.37,5.37,0,0,1-1.57,7.83c-2.67,1.58-6.3,1.18-7.92-1.68C210.39,101.2,209.59,99.78,210.24,98.06Zm-14.31,2.74c0-2.82.85-5.1,3.77-6.08,3.23-1.09,5.65.48,6.7,3.56,1,2.86-1.56,6.22-4.43,6.82a5.49,5.49,0,0,1-6-4.22v-.08h0C195.9,100.45,195.92,100.67,195.93,100.8Zm-15.51-3.72c1.45-2.53,5.18-3.4,7.82-2.34,2.81,1.14,3.1,6.11,1.79,8.35a6.17,6.17,0,0,1-3.18,2.5c-1.62.68-2.84.28-4.35-.59A6.07,6.07,0,0,1,180.42,97.08Zm-49.49,5.07c.28-2,.19-4.11.64-6.08s1.42-2.54,3.4-2.65c2.27-.13,4.54-.15,6.81-.18,2.06,0,4.14,0,6.2-.17,1.74-.14,3.41-.64,5.16-.77,3.91-.28,7.87-.23,11.79-.22,2.06,0,4.13,0,6.19.08,1.66.06,3,.14,3.49,1.94s0,3.9,0,5.71.22,4-.32,5.56c-1.11,3.27-6.75,2.52-9.39,2.75-1.75.16-3.4.7-5.16.74-2,.06-4.07.06-6.1.09-3.77,0-7.41,0-11.15,0-2.06,0-4.13,0-6.19,0-1.53,0-3.59.09-4.49-1.44a9.09,9.09,0,0,1-1.18-2.62A9.08,9.08,0,0,1,130.93,102.15Z"/><path class="cls-4" d="M257.7,190.6c-1.4-2-5.27-1.17-5.73,1.14a23.62,23.62,0,0,0-.3,4.6c0,1.13-.22,2.86.37,3.88,1.06,1.84,5.47,1.59,6-.62a21.7,21.7,0,0,0,.17-4.9C258.17,193.46,258.46,191.67,257.7,190.6Z"/><path class="cls-4" d="M256,157.83c-1.33-1.85-3.68-1.46-5.69-1.43-2.49,0-4.95-.07-7.25,1-2,1-3.15,3.36-4,5.38a12,12,0,0,0-.91,6.62,11.44,11.44,0,0,0,3.12,5.88,7.36,7.36,0,0,0,6.24,2.5c2,0,4.54.4,6.54-.31s3-2.75,3.88-4.47a11.66,11.66,0,0,0,1-7.91A24.34,24.34,0,0,0,256,157.83ZM247.44,170c-3.87,0-3.47-5.86.33-5.76C251.3,164.34,250.85,170,247.44,170Z"/><path class="cls-4" d="M280.06,189.93c-2.2.07-3.06,2-3.28,4-.13,1.22.42,2.33.26,3.53a6.8,6.8,0,0,0-.22,2.69c.49,2,3.35,2.78,5,1.83s1.61-4.72,2.06-6.46c.38-1.45.53-3.82-.66-4.93C282.38,189.78,281,189.9,280.06,189.93Z"/><path class="cls-4" d="M267.26,189.64c-3.48,0-3,3.29-3,5.89,0,3-.51,6.14,3.46,5.92,3.23-.18,2.76-3.26,2.91-5.73C270.61,192.74,271.15,189.6,267.26,189.64Z"/><path class="cls-4" d="M244.82,190.25a5,5,0,0,0-4-.38c-1.65.51-1.65,2-1.75,3.52s-.09,3.19-.34,4.79-.45,2.74,1.37,3.2c1.24.32,3.4.39,4.5-.38,1.7-1.19,1-5.08,1-6.84C245.47,192.82,246.06,191.24,244.82,190.25Z"/><path class="cls-4" d="M263.29,94.07a4.72,4.72,0,0,0-2.71.18c-1.11.6-.56,1.31.39,1.58a4.64,4.64,0,0,0,3.47-.42C265.54,94.78,263.81,94.17,263.29,94.07Z"/><path class="cls-4" d="M239.73,94.36a7.59,7.59,0,0,0-4,.13c-.88.35-1.59,1.27-.76,2.12s3.27.45,4.29.18S240.81,94.93,239.73,94.36Z"/><path class="cls-4" d="M273.4,108.06c1.06,0,2.65.26,2.8-1.16.24-2.2-3.91-1.47-4.7-.28S272.39,108.06,273.4,108.06Z"/><path class="cls-4" d="M280.78,156.71c-2-1.1-5.15-.48-7.36-.47s-5-.53-6.93.7a8.64,8.64,0,0,0-3.88,5.54,41.2,41.2,0,0,0-.08,8.31c.18,2.52,1.6,4.14,3.43,5.76,2,1.77,4.82,1.2,7.31,1.21,2.19,0,5.11.47,7.18-.42s3.25-3.31,3.95-5.25a12.82,12.82,0,0,0,0-9C283.65,160.91,283,158,280.78,156.71Zm-7.95,13c-3.52-1.23-.84-6.74,2-5C277.32,166.2,275.81,170.72,272.83,169.68Z"/><path class="cls-4" d="M284.85,97.87c-1,0-2.83,0-3.08,1.23s1.15,1.48,2.08,1.65c1-.07,2.95,0,3.38-1.17C287.74,98.15,285.79,97.91,284.85,97.87Z"/><path class="cls-4" d="M253.14,100.63c1.11-.87.1-1.9-1-2.14-1.44-.32-4.62.14-3.31,2.41A3.33,3.33,0,0,0,253.14,100.63Z"/><path class="cls-4" d="M339.79,98a2.64,2.64,0,0,0-2.41-1.49,2.48,2.48,0,0,0-1,.21c-.49.23-2.89,1.44-2,3.59a4.58,4.58,0,0,0,1.85,2,1.16,1.16,0,0,0,.66.2,3.34,3.34,0,0,0,1.42-.45,3.66,3.66,0,0,0,1.87-1.87C340.41,99.57,340.45,99.37,339.79,98Z"/><path class="cls-4" d="M322.07,97.12a3.25,3.25,0,0,0-2,.65,3,3,0,0,0-1,2,2.6,2.6,0,0,0,.43,1.9,2,2,0,0,0,1.66.82,5.18,5.18,0,0,0,2.49-.79,3.42,3.42,0,0,0,1.56-1.71,3.86,3.86,0,0,0-1-1.87A2.7,2.7,0,0,0,322.07,97.12Z"/><path class="cls-4" d="M307.93,97.13a5.25,5.25,0,0,0-.79-.06c-.63,0-2.71.14-3,2a3.67,3.67,0,0,0,.63,2.79,1.89,1.89,0,0,0,1.41.74h.26c1.41,0,3-.79,3.25-2.27C309.84,99.25,309.64,97.4,307.93,97.13Z"/><path class="cls-4" d="M187.23,97.26a4,4,0,0,0-4.46,1.17,3.35,3.35,0,0,0,1.09,4.23,3.4,3.4,0,0,0,1.41.57,1.44,1.44,0,0,0,.54-.13,3.65,3.65,0,0,0,1.88-1.37,5.24,5.24,0,0,0,.13-3.58A1.54,1.54,0,0,0,187.23,97.26Z"/><path class="cls-4" d="M215.6,97a3.49,3.49,0,0,0-1.6.35A3.19,3.19,0,0,0,212.77,99c-.17.47,0,1,.82,2.35a2.51,2.51,0,0,0,2.26,1.23h0a3.83,3.83,0,0,0,1.93-.54,2.79,2.79,0,0,0,1.28-1.88,2.42,2.42,0,0,0-.45-1.94A3.91,3.91,0,0,0,215.6,97Z"/><path class="cls-4" d="M201.66,97.08a3.37,3.37,0,0,0-1.1.21c-1,.33-1.88.84-1.92,3.33a3,3,0,0,0,2.55,1.85h0l.23,0a3.58,3.58,0,0,0,2.14-1.69,2.08,2.08,0,0,0,.28-1.6C203.37,97.78,202.64,97.08,201.66,97.08Z"/><path d="M398.09,164.07q-.16-11,.05-22c.15-7.66,0-15.3-.15-23-.06-3.67-.14-7.34-.34-11-.09-1.58.52-3.1.33-4.69s-.76-3.14-.86-4.8c-.22-3.69.18-7.51-.33-11.18A15.18,15.18,0,0,0,395,83c-.9-1.86-1.83-3.71-2.76-5.55-1.68-3.32-3.39-6.63-5.06-10C386,65,384.4,61.13,381.5,60.18a23.72,23.72,0,0,0-5.2-.53,31.65,31.65,0,0,1-5.3-.95,22.68,22.68,0,0,0-5-.36c-1.47,0-3.34.23-4.55-.81-1-.87-1.47-2.57-1.78-3.82A43.08,43.08,0,0,0,358.17,49c-1.32-3.59-2.65-7.17-3.89-10.79a12,12,0,0,0-2-3.75c-1.29-1.61-2.63-2-4.65-2.05-3.72-.12-7.45,0-11.17,0-7.56-.1-15.1.05-22.65,0-3.59,0-35.47-.08-42.68-.05-7.56,0-15.09.25-22.65.06s-15.1.1-22.66.11-15.1-.18-22.65-.22c-3.83,0-7.66,0-11.48.22-1.68.08-3.36,0-5,.11s-3.39.63-5.13.71c-2.86.12-6.91-.86-8.13,2.42s-2.19,6.5-3.08,9.75c-.81,2.95-1.13,6.81-3.14,9.27-.89,1.1-2.36,1-3.66,1.1-1.93.19-8.49.85-10.14.54a46.57,46.57,0,0,0-6.61,0,13,13,0,0,0-2.88.86,5.43,5.43,0,0,0-3.29,2.57c-3.85,6.12-6.89,12.65-10.47,18.93-.83,1.45-1.59,2.92-2.35,4.41A33.34,33.34,0,0,0,125.41,88a18,18,0,0,0-.33,5.19v5.58c0,7.66.32,15.32.27,23-.09,15.21-.23,30.41-.24,45.62,0,7.65-.06,15.31,0,23,0,3.83,0,7.66.11,11.49.06,3.49-.29,7.29.32,10.74a30.64,30.64,0,0,1,.76,4.76c0,1.84,0,3.68,0,5.51,0,3.08-.6,6.93,2.65,8.59a9.83,9.83,0,0,0,4.57.58c2.07,0,4.14-.12,6.21-.15,3.72,0,7.45,0,11.17,0,7.55.05,15.11.27,22.66.11s15.09.33,22.65.33,15.1,0,22.66,0c3.82,0,7.66.11,11.48-.06,1.76-.08,3.51-.24,5.27-.22,2,0,3.92.34,5.88.22,3.86-.24,7.62,0,11.47.08s7.65-.2,11.48-.32c7.44-.22,14.89,0,22.34-.05,3.51,0,7.49.42,10.92-.46s7.14-.67,10.71-.69c7.45,0,14.9-.19,22.35,0,7.65.17,15.31.14,23,.08,7.45-.06,14.9.15,22.35.15,3.82,0,7.65-.07,11.48-.16,2.76-.07,7.34.89,8-2.73a64.13,64.13,0,0,0,1.26-10c.09-3.67-.08-7.52.35-11.17a17.88,17.88,0,0,0,.41-4.44c-.21-1.83-.56-3.52-.61-5.37-.1-3.62,0-7.25.2-10.88.11-1.77.69-3.4.85-5.16s.19-3.72.22-5.58C398.25,171.72,398.15,167.89,398.09,164.07ZM394.32,90.8a113.7,113.7,0,0,1,.52,12.38c0,2-.1,3.92-.21,5.88-.12,2.26-1.15,2.87-3.34,2.9-8.06.12-16.15-.21-24.21-.32s-16.31,0-24.47.09c-4,0-8.06.22-12.09.08a33.65,33.65,0,0,1-5.32-.34,30.88,30.88,0,0,0-5.83-.64c-4-.07-8-.09-12-.18-2,0-3.92-.09-5.88-.2-1.57-.09-3.54,0-4.53-1.48s-.47-3.89-.44-5.49c0-2.07.06-4.13,0-6.2,0-1.86-.06-3.72-.1-5.58,0-1.6-.2-3.37,1.46-4.22,1.21-.61,2.69.07,3.95.22,2,.22,4,.17,6,.24,4.13.14,8.27.37,12.4.29,8.07-.15,16.11-.38,24.19-.18,4.16.11,8.17,1,12.32,1.09,4.65.15,9.31.14,14,.06,1,0,2.12,0,3.17-.12a49.25,49.25,0,0,1,5.54-.17,28.38,28.38,0,0,0,3.06.17c2.24,0,4.48.06,6.73.07C390.61,89.16,394.07,88.62,394.32,90.8ZM170.81,54.42c.36-1.55.88-3,1.38-4.51s.83-3.32,1.31-5,1-3.14,1.47-4.69c.44-1.31.72-3.34,2.1-4,1.19-.56,2.79-.36,4.05-.39l5.9-.14c3.43-.07,17.91-.3,19.49-.21,3.56.2,7.17.07,10.73.1l10.87.06c1.86,0,3.72,0,5.58-.1,1.6-.07,7.55-.12,9,0,1.92.1,3.85.06,5.77.08,3.62,0,7.24.08,10.86.08l22,0c7.34,0,14.69.2,22,.05,3.62-.07,7.24-.19,10.86-.16s7.31.3,10.92.06c1.54-.1,7.88-.18,9.59-.08A55.6,55.6,0,0,0,345,35.46c1.39-.19,2.69-.74,4,.12a7.66,7.66,0,0,1,2.55,3.71c1.24,3.2,2.64,6.36,3.75,9.61.54,1.58,1,3.17,1.51,4.76.34,1.09,1,3-.71,3.23-2.49.38-3.33-5-3.86-6.6-.45-1.3-.9-2.31-2.28-2.81-1.56-.56-3.28-.39-4.91-.54a39,39,0,0,0-4.19,0c-1.8.23-3.65.16-5.45.23-7.26.27-14.46,0-21.71-.09a43.67,43.67,0,0,1-4.71-.63,49.2,49.2,0,0,0-5.15-.14c-3.73-.05-7.45,0-11.18-.07s-7.23-.27-10.85-.37-7.12,0-10.67-.09c-1.68-.05-18.1,0-19.89,0-1.63,0-3.32,0-4.95-.09s-7.6,0-9.15.06c-1.86,0-3.72,0-5.58,0-7.35,0-14.69-.06-22,.06s-14.68.4-22,.44c-3.2,0-7.15-.64-9.8,1.54-2.29,1.88-1.63,5.44-3,7.9C173.62,57.68,170.24,56.89,170.81,54.42ZM350,57c-2.64.63-10.15,1-11.48.7a18.82,18.82,0,0,0-4.43-.44c-6.1,0-12.2.05-18.3,0-2.65,0-5.06-.95-7.71-1-1.52,0-3,0-4.58,0s-2.84.32-4.22.25c-6.12-.34-12.24-.31-18.38-.31h-9a38.69,38.69,0,0,0-8.6.55,39.06,39.06,0,0,1-8.37.52l-9.3,0c-12.3,0-24.61.14-36.91,0A17.62,17.62,0,0,1,204.9,57a153.92,153.92,0,0,0-16.5,0,23.06,23.06,0,0,1-4.63.28c-2.54,0-5.5.11-5.51-3.11a6.16,6.16,0,0,1,1-3.49,3.58,3.58,0,0,1,3.08-1.25c3.07-.14,6.16-.07,9.23-.1,1.42,0,2.84,0,4.26,0a38.23,38.23,0,0,0,3.81-.74,71.19,71.19,0,0,1,8.89-.23c12.29-.16,24.61-.39,36.9-.2s24.39-.15,36.59.19a34,34,0,0,1,4.28.21c1.33.22,9.78.82,12.68.84,6.2,0,12.41.07,18.61.17,1.29,0,22,0,24.91-.07,2.15,0,5.46-.62,6.83,1.51C349.9,51.88,351.86,56.5,350,57ZM131.17,83.51c1.39-4.23,4-8.25,6.13-12.15q1.63-3,3.28-6c.94-1.72,1.76-4.2,3.52-5.25s4-.81,5.9-.85c2.48-.05,5,.13,7.44.13,4.75,0,9.51-.14,14.26-.1a13,13,0,0,1,2.72.14c1,.22,7.36.9,9.44.5,4.43-.84,9.17-.65,13.67-.67s17.32.51,19.33.37c2.18-.16,4.4,0,6.58,0,4.5,0,8.95,0,13.41.4,2,.18,11.22,0,12.31-.19a35,35,0,0,1,6.31-.23c2.48,0,5-.06,7.44-.22,4.79-.29,9.61-.12,14.4-.12,9.67,0,19.35.07,29,.07,2.28,0,4.54.19,6.83.24s4.81-.11,7.19.1c1.95.16,3.78.7,5.76.72,2.38,0,4.76,0,7.14,0,4.65,0,9.29.34,13.95.36s9.5-.17,14.26-.06a46.25,46.25,0,0,1,6.45.18c1,.17,2,.58,3,.78s2.19.19,3.28.36a59.82,59.82,0,0,1,6.25,1.17c1.88.52,3.08,3.2,4,4.78,2.35,4,4.28,8.36,6.39,12.52.52,1,2.47,3.85,1.38,4.94a3.11,3.11,0,0,1-1.9.51c-1.42.11-2.91,0-4.34,0-9.25-.12-18.36,0-27.61-.16a60.52,60.52,0,0,1-6.46-.18,55,55,0,0,0-6.16-.84c-4.5-.1-9.1.07-13.5-.87a30.56,30.56,0,0,0-6.27-.31l-7.45,0c-4.76,0-9.51-.1-14.27-.12-2.27,0-4.55.07-6.82.14s-4.18.74-6.36.92c-4.64.39-9.36.31-14,.36-9.41.1-18.83-.07-28.23-.06-4.52,0-9.11-.26-13.61.11-2,.17-3.94.74-6,.79l-7.34.2c-2.21.06-4.42.06-6.62.2s-4.21.77-6.39.85c-4.74.18-9.47.13-14.2.08-4.39,0-9.27.55-13.53-.55s-9.18-.51-13.61-.64c-.91,0-7.58-.65-8.44-.46a20.72,20.72,0,0,1-3.84.43c-4.65.16-9.31.21-14,.21C140.05,85.94,130.08,86.83,131.17,83.51Zm161.71,40.61c0,1.65.07,3.32,0,5,0,1-.3,2.48-1.59,2.62-5.83.61-11.82.24-17.67.22s-11.8,0-17.69,0a42.5,42.5,0,0,0-7.89.63,50.55,50.55,0,0,1-8.17.38l-4.34.09c-1.2,0-2.71.3-3.84-.26-2-1-1.27-4.71-1.28-6.47,0-2.9,0-5.79,0-8.69,0-2.59,0-4.3,3-4.49,5.49-.33,11.08-.12,16.58-.16,9.68-.08,19.36,0,29,0q3.62,0,7.21-.09c2.14,0,6-.86,6.58,2a25.14,25.14,0,0,1,.06,4.34Zm-1.47,45.66a27.63,27.63,0,0,1-.46,6.16,35.82,35.82,0,0,0-.41,6.79c0,4.52-.52,9.33.18,13.81a40.63,40.63,0,0,1,.72,6c0,2,.34,4.76-.94,6.4-1.14,1.45-3.16,1.2-4.82,1.22-2.48,0-5,0-7.44,0-4.75,0-9.51-.06-14.26,0-2.19,0-4.39,0-6.58.15s-4.33.74-6.57.81c-4.47.13-9,.23-13.44.12-1.74,0-4.32.34-5.7-.93s-1.07-4.05-.9-5.74a54.15,54.15,0,0,0,.67-6,35.88,35.88,0,0,0-.27-6.8c-.91-4.35-.72-8.85-.82-13.28,0-2.08,0-4.18-.15-6.26s-.74-4.26-.78-6.49c-.08-4.71-.14-9.43-.09-14.14,0-4.4.51-8.66,1-13a3.22,3.22,0,0,1,3-3,51.66,51.66,0,0,1,7-.4c2.2-.07,4.41,0,6.61-.19s4.17-.79,6.33-.86c4.75-.14,9.51-.09,14.26,0a69.43,69.43,0,0,1,7.36.18,49.68,49.68,0,0,0,7.1.74c1.37,0,2.74-.09,4.1-.15,1,0,2-.39,3-.47,2.72-.2,2.72,2.43,2.74,4.45C291.92,149.11,291.13,159.46,291.41,169.78Zm0,45.44c-.18,4.16-7.48,3.34-10.18,3.45-4,.16-8.06.27-12.1.18-8.57-.17-17.14-.25-25.72-.36-1,0-1.93,0-2.89-.06s-2-.45-3.09-.54c-1.69-.17-3.65,1.15-5.24.26-1.26-.71-1.87-2.9-.78-4,1.27-1.28,4.21-.69,5.81-.66,9.19.17,18.4-.1,27.59-.2,2.4,0,4.81,0,7.2-.1,1.17,0,2.26-.44,3.42-.59a30.12,30.12,0,0,1,3.68-.16c2.44,0,4.89,0,7.33-.07C288.71,212.36,291.57,212.14,291.44,215.22ZM248.86,100.9c-1.31-2.27,1.87-2.73,3.31-2.41,1.07.24,2.08,1.27,1,2.14A3.33,3.33,0,0,1,248.86,100.9Zm35-.15c-.93-.17-2.34-.31-2.08-1.65s2.1-1.27,3.08-1.23,2.89.28,2.38,1.71C286.8,100.79,284.83,100.68,283.85,100.75Zm8.06,9.52c-1.48.44-4.57.86-5.26-1a7.63,7.63,0,0,1-.06-2.78,8.7,8.7,0,0,1,.54-3.55c.74-1.47,2.75-2.64,2.33-4.55s-2.57-2.55-3-4.48c-.27-1.26-.33-3.53-2.35-3-.85.21-1,.8-1.18,1.54-.27,1.32-.17,2.41-1.28,3.32-1.35,1.12-2.65,1.78-2.14,3.82s2.72,2.72,3.19,4.62c.28,1.15.18,2.4.39,3.57.11.59.62,1.63.37,2.18-.66,1.43-4.88.79-6.22.74-4.75-.17-9.48,0-14.24,0-2.23,0-4.46.05-6.69,0-.81,0-2,0-2.59-.59-.76-.79-.24-1.86-.09-2.81s.11-2,.25-2.94A10.52,10.52,0,0,1,255,101.5c.83-1.9.22-3.41-1.16-4.78s-.31-3.7-1.47-5.12a1.77,1.77,0,0,0-1.7-.6c-1.21.25-1.37,1.42-1.42,2.46-.05,1.38,0,2.32-.85,3.43s-2.28,2.54-1.26,4.15c.43.69,1.12,1.18,1.59,1.88a4,4,0,0,1,.8,2,31.82,31.82,0,0,0,.52,3.2c.16.66.4,1.35-.2,1.9s-2,.34-2.73.36l-3.1.07-7.43.17c-1.59,0-4.14.56-5.45-.62-1.57-1.41-.88-4.63-.87-6.52a40.71,40.71,0,0,0-.77-6.32c-.26-1.83-.64-4.86.2-6.57,1-1.93,3.88-1.42,5.64-1.37a30.1,30.1,0,0,0,6.55-.8c4.45-.82,9.28-.4,13.79-.43q16.41-.12,32.82-.19c1.89,0,4.65-.46,5.34,1.84A12.17,12.17,0,0,1,294,92.7l.15,4.34c.07,2.68.15,5.37.05,8C294.17,107.08,294.25,109.58,291.91,110.27ZM127.6,93.83c0-2,.45-3,2.43-3.47a36.2,36.2,0,0,1,5.21-1.15c2-.19,4-.11,6-.12s3.93,0,5.89-.06,3.94-.75,6-.77c4.09,0,8.2-.23,12.29-.16,2,0,4,0,6,.21s3.77.72,5.74.78c4.12.12,8.24,0,12.35.14,8.48.29,17-.07,25.45,0l6.21,0c1.66,0,4.3-.49,5.43,1.07.9,1.25.55,3.8.58,5.28q.07,3.42.11,6.83a26.69,26.69,0,0,0,.12,3.1,12,12,0,0,1,.36,2.77c-.18,1.51-1.54,2.14-2.89,2.24-3.47.25-7,0-10.5.15-3.74.13-7.48.14-11.22.15a25.8,25.8,0,0,0-5.55.47,31.83,31.83,0,0,1-6.18.36,43.79,43.79,0,0,1-5.84-.09,50.28,50.28,0,0,0-5.58-.79c-1.84,0-3.64.51-5.46.48s-3.94-.41-5.93-.47c-4.75-.13-9.52,0-14.27,0A37.4,37.4,0,0,0,148,111a47.06,47.06,0,0,1-6.61.73c-2.28.08-4.55.14-6.83.16-1.68,0-4.55.64-6-.41-1.69-1.23-.26-3.38-.21-5a15.38,15.38,0,0,0-.54-3.15,18.15,18.15,0,0,1-.23-3.29C127.6,98,127.57,95.9,127.6,93.83Zm-.12,104.76c-.06-3.45,0-6.9,0-10.35q0-10.4,0-20.8c0-7,.16-14,.1-20.94,0-3.41-.16-6.81-.08-10.22.07-3,1-5.86,1-8.9,0-3.21-.34-6.65.1-9.83a2.3,2.3,0,0,1,2.1-2.24c1.61-.34,3.22-.71,4.84-1a85.9,85.9,0,0,1,10.27-.46,40.3,40.3,0,0,0,4.53-.23,34.16,34.16,0,0,1,4.4-.57q5.12-.09,10.23-.11c3.14,0,6.08.86,9.23.87,7,0,13.9.11,20.85.13,3.47,0,6.94,0,10.42,0,1.66,0,3.32,0,5-.09a36.26,36.26,0,0,0,4.38-.69,53.23,53.23,0,0,1,10.1-.15c1.12,0,2.5.11,3,1.34a3.44,3.44,0,0,1-.09,1.85,8.42,8.42,0,0,0-.07,2.35c.11,1.45-.52,2.91-.35,4.4s.62,3,.66,4.57,0,3.23,0,4.83a33.23,33.23,0,0,1-.71,4.3,74,74,0,0,0-.37,10q-.08,5.37,0,10.73,0,5.2.14,10.41c.07,3.19-.15,6.57.52,9.7a47,47,0,0,1,.68,9.56q0,5.11.08,10.23l.09,10.54,0,5c0,1.43.31,3.5-.47,4.76-1.41,2.31-6.17,1.16-8.34,1.05-3.51-.17-7,0-10.54,0-13.62.29-27.29.21-40.92-.05-6.93-.13-13.84.14-20.77.17a39.84,39.84,0,0,1-9.45-.68,21.18,21.18,0,0,0-4.5-.42c-1.34,0-3.21.24-4.17-.91-.79-1-.65-2.49-.68-3.66-.05-1.76-.08-3.51-.09-5.27C128.47,204.66,127.54,201.73,127.48,198.59Zm265.66,27.6c-.57,2.2-2.7,1.47-4.35,1.68-1,.13-2,.54-3.05.62s-2.33,0-3.48,0q-7.14,0-14.28,0a29,29,0,0,1-3.36,0c-.91-.1-1.78-.45-2.68-.62-2.3-.43-10.68.68-12.61.52-1.06-.09-2-.64-3.09-.68s-6.46.06-8.41-.08a42.38,42.38,0,0,0-7.21.33c-2.05.2-4.08-.4-6.15-.36-2.48.06-5-.1-7.44,0-1,0-1.93.27-2.88.23s-2.2-.22-3.3-.25a37.82,37.82,0,0,0-7,.11,51.68,51.68,0,0,1-6.21.94c-2.39.1-4.79.1-7.19.12-2.2,0-4.41-.07-6.61.08s-4.38.82-6.62.73-10.91-.32-13.27-.07a89.13,89.13,0,0,1-14.24.28c-4.66-.26-9.29-.07-13.94-.25-2.38-.09-4.75.29-7.13.31s-4.76,0-7.14,0h-14l-14.27,0c-2.28,0-4.55-.08-6.82-.21s-4.5-.46-6.78-.74c-4.6-.57-9,1.15-13.6.44a94.38,94.38,0,0,0-13.56-.63c-4.64,0-9.35-.26-14,.11-3,.25-9.12,2.16-9.8-2.52-.23-1.62-.5-4.11,1.16-5.06s4.91-.42,6.8-.42,4.11.12,6.2.19,4,.79,6.12.36c4.36-.87,9.18-.35,13.62-.35a54.34,54.34,0,0,1,6.51.08c.87.11,25.28.78,34.69.78,2.26,0,4.53,0,6.79,0s10.07,0,12.06.05c2.44.07,4.92,0,7.37-.06,1.92,0,3.7-.72,5.61-.82,2.43-.14,4.9,0,7.34,0h14.28c2.25,0,4.5,0,6.75,0s17,0,19.34-.05c4.7,0,9.4-.2,14.1-.28a33.94,33.94,0,0,0,6-.59,44.41,44.41,0,0,1,6.92-.39c9.54-.29,19-.1,28.55.11a59.45,59.45,0,0,1,6.68.11,38.45,38.45,0,0,0,6.51.14,39.64,39.64,0,0,1,6.54-.29c2.48,0,5,0,7.45,0q7.14.09,14.27.05c3.38,0,7-.5,10.26.26.57.13,2,.18,2.45.56C394.18,221.6,393.42,225.07,393.14,226.19Zm1.79-73.86v10.55a17.7,17.7,0,0,0,.56,4.28,20.91,20.91,0,0,1,.28,4.94c0,1.65.06,3.31,0,5s-.64,3-.84,4.56a97,97,0,0,0-.39,10.23c-.06,3.52.09,7,.19,10.54s.07,7.06-.17,10.55c-.09,1.27-.07,2.62-1.13,3.49s-2.47.82-3.76.83c-7,.09-14.07.14-21.1.09a33.17,33.17,0,0,1-4.56-.23,79,79,0,0,0-9.36-.15c-1.43.12-2.66-.37-4.08-.1a37.5,37.5,0,0,1-9.76.22c-1.4-.11-2.74-.52-4.15-.62-1.77-.13-3.56-.1-5.34-.14-3.52-.07-7-.21-10.55-.15a73,73,0,0,0-9.92.37,34.18,34.18,0,0,1-4.28.61l-5.58.13c-2.27.06-6.52,1.15-7.2-1.86s0-6.11,0-9c.08-3.08.07-6.16,0-9.24-.07-6.36-.26-12.72-.26-19.08,0-6.62-.2-13.44,1-20,.6-3.23.3-6.74.32-10l.06-10.54q.06-10.4.13-20.79c0-1.22-.06-2.72,1.13-3.43s3.36-.4,4.78-.39c3.51,0,7,0,10.54,0a27.53,27.53,0,0,1,4.45.2,34.22,34.22,0,0,0,4.83.67c3.4.09,6.8.11,10.2.15,7,.07,14.06-.13,21.09-.1s14.07.11,21.1.15c3.51,0,7,.08,10.54.14,1.66,0,3.31.05,5,.19,1.39.12,3.69,0,4.89.7s1.16,2.08,1.23,3.28c.11,1.75.05,3.52.06,5.27a25.34,25.34,0,0,0,.18,4.85,24.33,24.33,0,0,1,.74,4.41,39.51,39.51,0,0,1-.57,9.73C394.54,145.73,394.93,149.17,394.93,152.33Z"/><path d="M135.13,154.87a30.14,30.14,0,0,1-.28,3.56,13.48,13.48,0,0,0-.55,3.38c.09,1.12.46,2.18.54,3.31.08,1.29.11,2.59.17,3.88a44.12,44.12,0,0,0,2.81,13.93,41.08,41.08,0,0,0,7.64,11.71,40.41,40.41,0,0,0,11.74,8.89A84.46,84.46,0,0,0,171,208.76c4.89,1.44,10.39,1.23,15.44,1a25.6,25.6,0,0,0,7.11-1.68,29.4,29.4,0,0,0,6.41-2.76,56,56,0,0,0,11.17-8.87,29.73,29.73,0,0,0,3.63-5.63,59.4,59.4,0,0,0,3.51-6.29,39.88,39.88,0,0,0,3.6-14.34c.12-2.51.12-4.83,0-7.33a36.75,36.75,0,0,0-.63-7.48,34.38,34.38,0,0,0-2.15-6.67c-1-2.13-2.14-4.21-3.17-6.33-4-8.16-11.86-14.53-20-18.2a36.91,36.91,0,0,0-11-3.41,59.22,59.22,0,0,0-6.25-.18,31.9,31.9,0,0,0-7.75.58c-5.65,1.42-11.45,2.71-16.43,5.89a47.51,47.51,0,0,0-10,9.25c-1.48,1.74-2.69,3.69-4.1,5.49a24.9,24.9,0,0,0-3.39,5.9A21.24,21.24,0,0,0,135.13,154.87Zm3.29,5.14a26.61,26.61,0,0,1,.85-7.45q.87-2.87,1.87-5.69a22.39,22.39,0,0,1,3.47-5.64,43.82,43.82,0,0,1,21.44-15.34,42.73,42.73,0,0,1,6.47-1,51.67,51.67,0,0,1,6.81-.82A30.3,30.3,0,0,1,193.18,127c4,1.94,8.43,3.39,11.6,6.72a47.17,47.17,0,0,1,7.94,11.46,44.14,44.14,0,0,1,4.58,13.15,44.78,44.78,0,0,1,1,6.63c0,1.89.1,3.79,0,5.68a29.5,29.5,0,0,1-1.82,8.12,48.76,48.76,0,0,1-5.94,12.39,19.17,19.17,0,0,1-4.32,4.88c-2,1.52-3.93,3.08-6,4.46a36.28,36.28,0,0,1-13,5.14,32.09,32.09,0,0,1-14.78-.31,70,70,0,0,1-12.77-4.54c-4.14-2-7.19-4.91-10.42-8.09a38,38,0,0,1-5.07-5.84,35.59,35.59,0,0,1-5.88-19.57C138.35,164.84,138.36,162.42,138.42,160Z"/><path d="M221,121.05a1.87,1.87,0,0,0,2.34-.72c.66-.92.75-1.56-.3-2C220.92,117.37,218.43,119.87,221,121.05Z"/><path d="M135.66,122.76c2.23-.17,1.61-4-.59-3.34A1.71,1.71,0,0,0,135.66,122.76Z"/><path d="M137.21,210.13c-1.83-.14-2.9,2.4-.89,3S139.28,210.3,137.21,210.13Z"/><path d="M220.92,207.77c-2-.24-2.65,3-.37,3C222.41,210.68,223.12,208,220.92,207.77Z"/><path d="M386.84,152.18c-1-4.88-3.88-8.61-6.61-12.63a42.33,42.33,0,0,0-3.77-5.06,64.07,64.07,0,0,0-5.1-4.48,30.28,30.28,0,0,0-4.76-3.51,35.87,35.87,0,0,0-6.53-2.72,41,41,0,0,0-6.42-1.85,52.25,52.25,0,0,0-6.67-1.15c-2.39-.09-4.84-.09-7.23,0a34.46,34.46,0,0,0-6.26,1.22,49.1,49.1,0,0,0-6.78,2.28,36.76,36.76,0,0,0-6.14,3.74,42.07,42.07,0,0,0-9.41,8.08,55,55,0,0,0-7,11.46,30.49,30.49,0,0,0-2.36,6c-.25,1.05-.3,2.1-.46,3.16s-.64,2.31-.81,3.51A38,38,0,0,0,301.2,174c.5,2.15.68,4.3,1.39,6.42a47.14,47.14,0,0,0,3.05,6.9c2.06,3.92,3.89,7.78,7.16,10.85,1.61,1.51,3.41,2.72,5.16,4.07a45.89,45.89,0,0,0,5.79,4.1,34.05,34.05,0,0,0,6,2.19,22,22,0,0,0,6.51,1.35c4.76.14,10.19.55,14.82-.75a85.69,85.69,0,0,0,13.48-5,30.61,30.61,0,0,0,6.4-3.86,46.84,46.84,0,0,0,5.49-4.73c3.37-3.82,6.66-8.22,8.55-13A32.6,32.6,0,0,0,386,179a31.61,31.61,0,0,0,.91-3.6,65.94,65.94,0,0,0,1.11-7.24c.12-2.77.19-5.59,0-8.36A52.33,52.33,0,0,0,386.84,152.18Zm-2.28,15.62a42.62,42.62,0,0,1-.89,5.71,38.25,38.25,0,0,1-1.6,6.32,32,32,0,0,1-5.51,9.76,44.88,44.88,0,0,1-18.27,13.56,53.65,53.65,0,0,1-6.1,1.86,26.46,26.46,0,0,1-6.39,1.29c-4.18.06-8.73.45-12.81-.65a38.63,38.63,0,0,1-11.26-5.27c-1.74-1.17-3.36-2.5-5-3.78a27.28,27.28,0,0,1-5-5.44A36.74,36.74,0,0,1,306.37,180c-1.35-4.19-2.56-8.55-2.41-13,.07-2,.66-3.85.81-5.81a48.39,48.39,0,0,1,1.28-6.73c.91-4,3-7.87,5-11.48A42.63,42.63,0,0,1,319,133c3.11-3.08,7.47-4.39,11.39-6.12a21,21,0,0,1,5.67-1.79c2-.27,4-.91,6-.85s4,.7,6,.81a38.18,38.18,0,0,1,6.67.57,39.67,39.67,0,0,1,12.52,5.7,32,32,0,0,1,5.49,4.26c1.64,1.69,3.1,3.61,4.68,5.36C383.92,148.12,384.74,158.55,384.56,167.8Z"/><path d="M384.39,210.11c-2.75,0-2.81,4.37,0,4.43S387.29,210.1,384.39,210.11Z"/><path d="M300.28,120.87c1.86,1.39,3.28-2.67,1.28-3.55a1.67,1.67,0,0,0-2.16,1A2.1,2.1,0,0,0,300.28,120.87Z"/><path d="M388.63,120.87c-2.09-.89-4.73,1.67-2.14,2.89C388.43,124.68,390.73,121.78,388.63,120.87Z"/><path d="M301,207.53c-1.75.06-2.67,2.49-.76,3.16C302.58,211.51,303.21,207.46,301,207.53Z"/><path d="M163,77.78c2.63,2,6.85,1.47,10,1.53,3.62.07,7.24,0,10.86,0,7.23-.08,14.47.18,21.7.21,3.52,0,13.71.46,15.31.7a33.39,33.39,0,0,0,5.1.07H236.5c3.34,0,6.53-.74,9.86-.82l10.54-.28c3.4-.08,7,.17,10.37-.39a67.93,67.93,0,0,1,10.47.11c3.3.48,23.89-.8,31-.74a36.65,36.65,0,0,1,5.13.25,32.36,32.36,0,0,0,4.72.57c3.52,0,7,0,10.55.07,7.23.07,14.47.19,21.7.24,3.62,0,7.24,0,10.86-.06,1.29,0,3.57.35,4.64-.51s.6-2.76.15-3.9a48.53,48.53,0,0,0-2.09-4.44c-.64-1.22-1.28-2.94-2.47-3.73s-3.3-.57-4.76-.64c-1.79-.08-3.58-.11-5.37-.25-1.45-.11-2.79-.55-4.21-.77a43.08,43.08,0,0,0-5.21-.25c-3.71-.12-7.44-.26-11.16-.25-3.52,0-7,.12-10.54,0s-7,.36-10.38-.23a29.85,29.85,0,0,0-4.42-.67c-1.86-.05-3.72-.07-5.58-.1-3.62-.05-7.24-.13-10.86-.19-14.35-.27-28.74,0-43.1.32-3.29.07-6.54.8-9.85.93-3.51.14-7,.15-10.54.13-7,0-14.26,0-21.09,0l-21.71,0c-3.51,0-7-.07-10.53.14a8.12,8.12,0,0,0-4.11,1c-1.25.84-2,2.56-2.71,3.83S161.33,76.49,163,77.78Zm196.87-9.44c1.64-.5,2.54,1.57,3.07,2.68s2,4.37,1.15,5.38c-1.49,1.71-2.64-1.12-3.06-2.09a40.13,40.13,0,0,0-2.74-5.39C358.87,68.76,359.37,68.5,359.91,68.34Zm-3.8,1.22a1,1,0,0,1,1.22-.6c.5.21.91,1.62,1.15,2.15C359,72.22,360,73.8,359.9,75c0,.43-.26,1.18-.84,1.14s-1-1.33-1.27-1.82C357.19,73.15,355.56,71,356.11,69.56Zm-4.44-1c1.72-.06,2.35,1.77,3,3.08.44.87,2.32,4,.91,4.72s-2.64-3-3-3.72C352.39,72.31,350.19,68.75,351.67,68.59Zm-4.84-.2c1.91-.74,2.9,2,3.53,3.23.54,1.09,2.49,4,.93,4.92s-2.79-1.82-3.3-2.84S345.24,69,346.83,68.39Zm-5.93-.91c2.25-.25,3.26,1.75,4.12,3.5.54,1.12,2.58,4.71,1.09,5.7-1.86,1.24-3.48-2.48-4-3.56C341.67,72.34,339,67.92,340.9,67.48Zm-5.65.08c1.44-1.76,3.26,1.69,3.74,2.56.76,1.4,3,4.56,1.2,5.84s-3.05-.89-3.67-2.22S334.13,68.92,335.25,67.56Zm-6.49.49c.1-.82,1.15-1.06,1.79-.91A3.94,3.94,0,0,1,332.66,69a13.3,13.3,0,0,1,1.33,3c.28.82,1.05,2.28.62,3.07-1,1.89-3.18,0-3.78-1.05C329.87,72.32,328.52,70.1,328.76,68.05Zm-124-.94c4.66-.59,9.56-.19,14.25-.19s9.5,0,14.25-.06,9.3-.19,13.94-.22c4.43,0,8.92.24,13.28-.63a32.64,32.64,0,0,1,6.18-.18q3.71,0,7.43-.08c4.75-.06,9.5,0,14.25,0,4.51,0,9,0,13.52.09,2,0,3.86.7,5.84.83,2.4.15,4.81.17,7.21.18s4.54-.1,6.81,0c2,.07,3.77.08,4.8,2a19,19,0,0,1,1,2.28c.32.89,1.1,2.3,1,3.24-.11,1.92-2.89,1.55-4.13,1.56-9.39,0-18.8-.08-28.19,0L269,76a44.22,44.22,0,0,0-6.41.21c-1.07.16-5.4.8-6.51.83-4.71.11-9.57-.15-14.25.44a55.43,55.43,0,0,1-7.09.64c-2.57,0-5.15,0-7.72,0a35.12,35.12,0,0,1-7.46-.42c-2.49-.54-11.5,0-13.77-.24-1.25-.14-2.5-.12-3.74-.18a6.41,6.41,0,0,1-3-.46c-1.81-1.21.53-4.22,1.23-5.41C201.37,69.57,202.45,67.41,204.8,67.11Zm-8,1.35c.79-.47,2.13-.54,2.52.51.29.78-.31,1.64-.64,2.3-.89,1.78-1.83,4.93-4,5.61a1.83,1.83,0,0,1-2.19-.6c-.49-.72,0-1.28.35-2,.57-1,1.23-2,1.82-2.94S195.82,69,196.8,68.46Zm-4-.27c2.31-.36-.15,3.89-.35,4.48-.42,1.27-1.12,3.56-2.7,3.91-1,.23-1.43-.8-1.41-1.65a6.85,6.85,0,0,1,1.16-2.78C190.24,70.65,190.81,68.49,192.76,68.19Zm-4.8.14a1.35,1.35,0,0,1,1.68,1.22c0,1.34-1.36,3.36-2.1,4.43-.58.83-1.1,2.25-2.16,2.66-.76.29-2-.08-1.9-1.11a11.44,11.44,0,0,1,1.22-2.19c.49-.93,1-1.84,1.42-2.81S186.63,68.61,188,68.33Zm-4.47-.11a1.59,1.59,0,0,1,1.46.26c.62.57.35.63,0,1.33-.48.91-.83,1.88-1.24,2.81-.63,1.42-1.46,4.21-3.4,4.31a1.65,1.65,0,0,1-1.63-1c-.17-.67.46-1.57.81-2.13.61-1,1.25-1.89,1.81-2.88S182.3,68.53,183.49,68.22Zm-5.56.08c3.08-.16,1,3.29.57,4.91-.34,1.34-1.49,3.55-3.07,3.7a1.6,1.6,0,0,1-1.78-1.31c-.17-.86.4-1.54.79-2.29A25.87,25.87,0,0,0,176,70.15C176.3,69.37,176.93,68.35,177.93,68.3Zm-2.81-.8c1.16.54.58,1.5.19,2.2-.48.89-.77,1.85-1.22,2.75-.62,1.24-1.43,3.93-3.11,4.1-.94.09-1.31-.69-1.28-1.55,0-1.16,1-2.35,1.49-3.39C171.8,70.36,173,66.5,175.12,67.5Zm-10,7.59A24.86,24.86,0,0,1,168.37,69c.44-.59,1.16-1.47,2-1.21s.91,1.36.71,2.05a19,19,0,0,1-2.51,4.93,4,4,0,0,1-1.79,1.75C165.94,76.81,164.66,76.25,165.09,75.09Z"/><path d="M288.58,161.89c0-1.36.32-3.34-.17-4.63-.67-1.74,0-5.62-1.85-6.6-1.08-.59-2.81-.38-4-.38h-4.34c-5.65,0-11.05,0-16.7.13-2.73.07-5.57-.07-8.29.26a70.85,70.85,0,0,1-7.72.81,79.48,79.48,0,0,0-8.73.26c-3,.4-2.29,3.3-2.27,5.61,0,2.79-.14,5.66.12,8.43.1,1.15.49,2.24.66,3.38a40.45,40.45,0,0,1,.29,4.26c0,1.32.08,2.63.11,4,0,1.12-.2,2.78.29,3.84.95,2,5.29,1.29,7.08,1.21a60.89,60.89,0,0,0,8.11-.48,45.35,45.35,0,0,1,7.9-.53,25.61,25.61,0,0,1,3.92.18,9.69,9.69,0,0,0,3.51.28,40.39,40.39,0,0,1,7.93-.57c3.29,0,6.61.13,9.89-.12,1.18-.09,2.82,0,3.62-1s.62-2.55.66-3.71c.11-3.29.09-6.59,0-9.89C288.63,165,288.61,163.43,288.58,161.89ZM257.9,173.05c-.85,1.72-1.95,3.79-3.88,4.47s-4.51.3-6.54.31a7.36,7.36,0,0,1-6.24-2.5,11.44,11.44,0,0,1-3.12-5.88,12,12,0,0,1,.91-6.62c.83-2,1.93-4.38,4-5.38,2.3-1.12,4.76-1,7.25-1,2,0,4.36-.42,5.69,1.43a24.34,24.34,0,0,1,3,7.31A11.66,11.66,0,0,1,257.9,173.05Zm26.5-1c-.7,1.94-1.94,4.38-3.95,5.25s-5,.44-7.18.42c-2.49,0-5.31.56-7.31-1.21-1.83-1.62-3.25-3.24-3.43-5.76a41.2,41.2,0,0,1,.08-8.31,8.64,8.64,0,0,1,3.88-5.54c1.91-1.23,4.77-.69,6.93-.7s5.34-.63,7.36.47c2.25,1.24,2.87,4.2,3.61,6.41A12.82,12.82,0,0,1,284.4,172.09Z"/><path d="M284.82,188.14c-1.64-.82-4.35-.38-6.15-.43-2.48-.07-5-.13-7.45-.18a34.28,34.28,0,0,1-6.15-.61,33.65,33.65,0,0,0-6.81-.26c-2,0-4.11-.07-6.2-.07a54.6,54.6,0,0,0-6.4.81c-2.09.25-4.21.1-6.3.28-1.39.13-2.19.51-2.45,1.95-.18,1-.12,2-.34,3a22,22,0,0,0-.56,2.53c-.22,2-.6,4.78-.18,6.82s2.47,2.29,4.16,2a37,37,0,0,1,6.9-.3h14.28c2.15,0,4.32-.09,6.46.06s4.23.76,6.5.75a27.92,27.92,0,0,0,4-.1,12.29,12.29,0,0,1,3.53-.17c1.93.22,3.87-.27,4.34-2.5.53-2.45.16-5.39.18-7.88C286.18,192,286.78,189.13,284.82,188.14ZM244.61,201c-1.1.77-3.26.7-4.5.38-1.82-.46-1.6-1.69-1.37-3.2s.22-3.19.34-4.79.1-3,1.75-3.52a5,5,0,0,1,4,.38c1.24,1,.65,2.57.77,3.91C245.59,195.92,246.31,199.81,244.61,201ZM258,199.6c-.49,2.21-4.9,2.46-6,.62-.59-1-.38-2.75-.37-3.88a23.62,23.62,0,0,1,.3-4.6c.46-2.31,4.33-3.12,5.73-1.14.76,1.07.47,2.86.47,4.1A21.7,21.7,0,0,1,258,199.6Zm12.61-3.88c-.15,2.47.32,5.55-2.91,5.73-4,.22-3.46-3-3.46-5.92,0-2.6-.46-5.85,3-5.89C271.15,189.6,270.61,192.74,270.61,195.72Zm13.3-.21c-.45,1.74-.32,5.49-2.06,6.46s-4.54.15-5-1.83a6.8,6.8,0,0,1,.22-2.69c.16-1.2-.39-2.31-.26-3.53.22-2,1.08-3.92,3.28-4,.93,0,2.32-.15,3.19.65C284.44,191.69,284.29,194.06,283.91,195.51Z"/><path d="M248,145.59c2,1.18,4.76-.15,6.91-.28,2.41-.14,4.85-.05,7.27-.05,2.72,0,5.44-.15,8.16-.27a21.14,21.14,0,0,0,3.46-.35,13.4,13.4,0,0,0,4.07-1.15c1.43-1,1.52-3.78.46-5-1.58-1.86-4.78-1.62-6.95-1.6-2.89,0-5.68.73-8.55.93s-5.55.29-8.32.32c-1.65,0-3.29,0-4.93.06-1.22.05-2.36,0-3.18,1s-.59,2.78-.35,3.89A3.91,3.91,0,0,0,248,145.59Z"/><path d="M389.21,93.5c-3.66-.89-7.77-.1-11.51-.38-1.7-.13-8.76-.2-10.64-.15-4,.1-8.06.12-12.09.2-1.68,0-4-.32-5.59.27-1.75.65-1.74,2.28-1.78,3.85-.06,2.06,0,4.13,0,6.2,0,1.46.12,3,1.47,3.84,3.33,2.15,7.77,1.63,11.5,1.6,7.9-.07,15.77,0,23.67.2,1.75,0,4.13.43,5.77-.38s1.77-2.33,1.85-3.91a56.56,56.56,0,0,0-.09-7.13C391.68,96.15,391,93.93,389.21,93.5Z"/><path d="M335.24,94.23c-2.78,1.26-4.65,4-3.38,7.09a7.18,7.18,0,0,0,2.95,3.24,4.58,4.58,0,0,0,4.72-.16,6.4,6.4,0,0,0,3.1-3.16c.76-1.69.36-2.84-.39-4.42A5.36,5.36,0,0,0,335.24,94.23Zm4.92,5.89a3.66,3.66,0,0,1-1.87,1.87,3.34,3.34,0,0,1-1.42.45,1.16,1.16,0,0,1-.66-.2,4.58,4.58,0,0,1-1.85-2c-.89-2.15,1.51-3.36,2-3.59a2.48,2.48,0,0,1,1-.21A2.64,2.64,0,0,1,339.79,98C340.45,99.37,340.41,99.57,340.16,100.12Z"/><path d="M318.42,95.63a5.73,5.73,0,0,0-1,7.68c2,2.54,5.12,2.16,7.64.68a6,6,0,0,0,2.77-3.23c.48-1.46-.51-3.16-1.39-4.32A5.81,5.81,0,0,0,318.42,95.63Zm5.24,6a5.18,5.18,0,0,1-2.49.79,2,2,0,0,1-1.66-.82,2.6,2.6,0,0,1-.43-1.9,3,3,0,0,1,1-2,3.25,3.25,0,0,1,2-.65,2.7,2.7,0,0,1,2.19,1,3.86,3.86,0,0,1,1,1.87A3.42,3.42,0,0,1,323.66,101.66Z"/><path d="M308.35,94.45c-3-.46-6.35.82-6.89,4.15-.49,3.05,1.19,6.43,4.52,6.66,2.92.21,5.95-1.57,6.39-4.56S311.43,94.93,308.35,94.45Zm1.34,5.85c-.22,1.48-1.84,2.27-3.25,2.27h-.26a1.89,1.89,0,0,1-1.41-.74,3.67,3.67,0,0,1-.63-2.79c.29-1.82,2.37-2,3-2a5.25,5.25,0,0,1,.79.06C309.64,97.4,309.84,99.25,309.69,100.3Z"/><path d="M131.79,107.55c.9,1.53,3,1.41,4.49,1.44,2.06,0,4.13,0,6.19,0,3.74,0,7.38,0,11.15,0,2,0,4.07,0,6.1-.09,1.76,0,3.41-.58,5.16-.74,2.64-.23,8.28.52,9.39-2.75.54-1.6.25-3.87.32-5.56s.46-3.93,0-5.71-1.83-1.88-3.49-1.94c-2.06-.08-4.13-.07-6.19-.08-3.92,0-7.88-.06-11.79.22-1.75.13-3.42.63-5.16.77-2.06.17-4.14.14-6.2.17-2.27,0-4.54.05-6.81.18-2,.11-2.93.63-3.4,2.65s-.36,4.08-.64,6.08a9.08,9.08,0,0,0-.32,2.78A9.09,9.09,0,0,0,131.79,107.55Z"/><path d="M182.5,105c1.51.87,2.73,1.27,4.35.59a6.17,6.17,0,0,0,3.18-2.5c1.31-2.24,1-7.21-1.79-8.35-2.64-1.06-6.37-.19-7.82,2.34A6.07,6.07,0,0,0,182.5,105Zm.27-6.57a4,4,0,0,1,4.46-1.17,1.54,1.54,0,0,1,.59.89,5.24,5.24,0,0,1-.13,3.58,3.65,3.65,0,0,1-1.88,1.37,1.44,1.44,0,0,1-.54.13,3.4,3.4,0,0,1-1.41-.57A3.35,3.35,0,0,1,182.77,98.43Z"/><path d="M219.16,104.38a5.37,5.37,0,0,0,1.57-7.83,6.78,6.78,0,0,0-8-1.63,5.67,5.67,0,0,0-2.52,3.14c-.65,1.72.15,3.14,1,4.64C212.86,105.56,216.49,106,219.16,104.38ZM212.77,99A3.19,3.19,0,0,1,214,97.33a3.49,3.49,0,0,1,1.6-.35,3.91,3.91,0,0,1,3,1.25,2.42,2.42,0,0,1,.45,1.94,2.79,2.79,0,0,1-1.28,1.88,3.83,3.83,0,0,1-1.93.54h0a2.51,2.51,0,0,1-2.26-1.23C212.81,100,212.6,99.48,212.77,99Z"/><path d="M195.93,100.8c0-.13,0-.35,0,0Z"/><path d="M202,105.1c2.87-.6,5.42-4,4.43-6.82-1.05-3.08-3.47-4.65-6.7-3.56-2.92,1-3.77,3.26-3.77,6.08v.08A5.49,5.49,0,0,0,202,105.1Zm-1.41-7.81a3.37,3.37,0,0,1,1.1-.21c1,0,1.71.7,2.18,2.08a2.08,2.08,0,0,1-.28,1.6,3.58,3.58,0,0,1-2.14,1.69l-.23,0h0a3,3,0,0,1-2.55-1.85C198.68,98.13,199.57,97.62,200.56,97.29Z"/><path d="M265.79,92.52c-1.65-1.11-2.93-2.14-4.85-1.22-1.26.6-3.77,1.34-3.5,3.09.3,2,2.57,2.43,3.15,4.19.66,2,.1,4.61.29,6.71.11,1.21,1.14,4.5,2.67,2.46,1.19-1.6.66-4.67.62-6.54A5.31,5.31,0,0,1,266,96.74C267.41,95.4,267.55,93.71,265.79,92.52Zm-1.35,2.89a4.64,4.64,0,0,1-3.47.42c-1-.27-1.5-1-.39-1.58a4.72,4.72,0,0,1,2.71-.18C263.81,94.17,265.54,94.78,264.44,95.41Z"/><path d="M277.4,104.59c-3.57-3-1.37-8.13-2.23-12.1-.35-1.59-2.55-2.65-3.33-.7a11.81,11.81,0,0,0-.16,3.47c0,1.24,0,2.48-.07,3.72a23.85,23.85,0,0,1-.12,3.59,6.42,6.42,0,0,1-1.34,2.54c-1,1.48-.47,2.88,1.05,3.76s4.42.5,5.82-.14C278.93,107.86,278.83,105.79,277.4,104.59Zm-1.2,2.31c-.15,1.42-1.74,1.15-2.8,1.16s-2.79-.1-1.9-1.44S276.44,104.7,276.2,106.9Z"/><path d="M277.57,118.05a24.23,24.23,0,0,0-8.25-1.1c-2.87,0-5.61.78-8.44.84-3,.06-6.07.08-9.11.2l-4.33.18c-1.2.06-2.6.06-3.38,1.1s-.39,2.11-.15,3.23.16,2.5.73,3.51a2.5,2.5,0,0,0,2.66,1.24c1.56-.17,3.08-.5,4.65-.61,5.52-.4,11.18-.13,16.72-.15,1.74,0,3.47,0,5.2.08,1.34,0,3.39.43,4.45-.6s.8-2.89.73-4.14S279,118.57,277.57,118.05Z"/><path d="M274.81,164.67c-2.82-1.73-5.5,3.78-2,5C275.81,170.72,277.32,166.2,274.81,164.67Z"/><path d="M247.77,164.25c-3.8-.1-4.2,5.77-.33,5.76C250.85,170,251.3,164.34,247.77,164.25Z"/><path d="M146.38,161.68c.35.94.79,1.84,1.18,2.76l2.43,5.63c1.32,3.05,4,5.79,6.24,8.19s4.66,4.79,7.09,7.06,5.33,4.41,7.86,6.79c1.15,1.09,2.38,2,3.62,3,1.4,1.11,2.62,2.49,4,3.57,2.46,1.89,4.9-2,6.69-3.36a88.64,88.64,0,0,0,7.91-6.85c4.95-4.81,9.55-9.7,12.95-15.75,3.2-5.72,5.23-12.52,4.32-19.12a16.28,16.28,0,0,0-4.5-8.56c-2.29-2.37-4.47-4.47-7.79-5.19a8.42,8.42,0,0,0-4.11-.17,17.92,17.92,0,0,0-4.56,1.66,29.24,29.24,0,0,0-4.18,2.29,50,50,0,0,0-4.18,3.79c-.8.75-1.95,1.87-3.09,2s-2.15-1.25-2.95-2a28.35,28.35,0,0,0-7.92-5.79c-3-1.38-7.12-2.16-10.37-1.12-3.59,1.14-6.52,4.14-9,6.85a7.11,7.11,0,0,0-2,5.12,60.47,60.47,0,0,0,0,6.17A9.91,9.91,0,0,0,146.38,161.68Zm59.25-3c1.08-.48.9.59.67,1.4-.6,2.13-1.37,4.28-2.16,6.36A54.64,54.64,0,0,1,197,178.59a44.8,44.8,0,0,1-4.58,5.34c-.46.46-4.55,4.68-4.46,2.45,0-.8,1.5-2.27,2-2.94.74-1.1,1.44-2.21,2.15-3.31,1.22-1.88,2.59-3.67,3.65-5.65,2.49-4.64,5.37-9.12,8.1-13.62C204.27,160.17,204.84,159,205.63,158.66ZM196,156.21a27.83,27.83,0,0,1,2.58-4.2c.7-1,2.11-3.57,3.33-3.82s2,1.29,1.77,2.27c-.34,1.44-1.75,2.88-2.51,4.13-1.87,3.1-3.81,6.19-5.44,9.42a89.93,89.93,0,0,1-5.55,8.9l-6.51,9.83c-.92,1.4-1.87,2.76-2.87,4.09a27.1,27.1,0,0,1-3.44,4.35c-1.06.9-2.27-.05-2.42-1.3s1-2.66,1.69-3.72c2.12-3.19,4.23-6.38,6.38-9.55,2.31-3.42,4.63-6.81,6.71-10.38C191.64,162.86,194.25,159.72,196,156.21Zm-17,7.28c2-3.15,4.07-6.2,6-9.34q1.32-2.09,2.62-4.19a32.07,32.07,0,0,1,3.08-4.9,3.74,3.74,0,0,1,3.8-.9c1.3.68.08,2.14-.48,3-1.85,2.78-3.46,5.71-5.21,8.55-3.56,5.78-6.95,11.65-10.7,17.31-2,2.95-3.81,6-6,8.83-.73,1-1.81,2.56-3.08,2.82a2.24,2.24,0,0,1-2.52-2.24c.11-.74,1-1.56,1.41-2.16s1.07-1.48,1.59-2.24c1-1.47,2.14-2.85,3.18-4.3C175,170.46,176.82,166.85,178.93,163.49Zm-1.83-10c.11,1.06-.81,2.22-1.29,3.06-1.33,2.31-2.78,4.55-4.1,6.86-1.47,2.59-3.07,5.09-4.73,7.57l-2.32,3.45a15.82,15.82,0,0,1-2.3,3.3,1.38,1.38,0,0,1-2.39-.57,3.66,3.66,0,0,1,.64-3c1.48-2.56,3.06-5.09,4.71-7.55,3.08-4.63,6.19-9.64,9.93-13.76C176.05,151.88,177,152.35,177.1,153.45Zm-9.2-6.1c.73-.8,1.61.16,1.7.89a4.6,4.6,0,0,1-.89,2.55c-1.22,2.24-2.77,4.32-4.18,6.44l-4.44,6.66c-1.3,1.93-2.64,4.82-4.6,6.17-1,.66-1.53.36-1.77-.73a4.67,4.67,0,0,1,.62-3.15,58.18,58.18,0,0,1,4.14-6.32A102.33,102.33,0,0,1,167.9,147.35Zm-18,9.31a4.36,4.36,0,0,1,.7-2.33c2-2.82,4-5.57,6.07-8.35.78-1.06,1.6-2.11,3.09-1.63,1.92.61,0,2.54-.68,3.47-2,2.63-3.86,5.33-5.86,8-.46.61-2.27,3.71-3,3.13C149.76,158.55,149.89,157.14,149.91,156.66Z"/><path d="M371.32,144.63a15.5,15.5,0,0,0-8.47-4.29c-1.51-.2-3.06.46-4.52.76a15.53,15.53,0,0,0-4.63,1.56,23.86,23.86,0,0,0-4,2.94c-.66.56-1.31,1.11-1.95,1.68a17.24,17.24,0,0,1-2.31,2.14c-2.2,1.23-4.9-2.79-6.41-4a35.52,35.52,0,0,0-8.35-4.84,13.11,13.11,0,0,0-6.28-.55c-3.25.35-5.71,2.9-7.82,5.19a16.21,16.21,0,0,0-4.51,8.85,15,15,0,0,0-.47,4.85c.27,1.75.61,3.53.94,5.27.59,3.22,2.4,6.49,4,9.33a47.85,47.85,0,0,0,6.12,8.68c2.38,2.65,4.89,5.19,7.47,7.64s5.52,4.42,8.12,6.85a16.71,16.71,0,0,0,3,2.68c1.71.91,2.88-.63,4-1.69,2.63-2.48,5.46-4.68,8.15-7.07,6-5.31,12.2-10.88,17.25-17.12a15.69,15.69,0,0,0,2.25-4.31c.85-2.08,2-4,2.79-6.16a28.45,28.45,0,0,0,.91-5.55c.27-1.82-.25-3.69-.36-5.52C376.07,148.72,373.61,146.68,371.32,144.63Zm-37,43.05c-1.23,1.33-10.31-11-11.14-12.3a55.48,55.48,0,0,1-4.26-7.65c-1.22-2.7-2.58-5.72-2.6-8.73,1.17.23,1.78,1.55,2.38,2.44.88,1.29,1.75,2.59,2.59,3.91,1.58,2.46,3,5,4.43,7.56s3.08,5,4.72,7.42c.91,1.36,1.81,2.74,2.7,4.12C333.56,185.08,335.11,186.86,334.34,187.68Zm12.84,3.86c-1.79,1.7-5.58-4.63-6.45-5.83-2.1-2.9-4.15-5.83-6.1-8.83-3.92-6.06-7.38-12.35-11.13-18.5-.87-1.43-1.75-2.86-2.6-4.3s-2.37-3.11-1.57-4.69c1.62-3.16,5.08,3.13,5.87,4.46,1.83,3.06,3.63,6.1,5.58,9.11,1.85,2.86,3.29,5.94,5.13,8.8,2.23,3.47,4.84,6.69,7.12,10.13,1.09,1.65,2.16,3.33,3.24,5S348.87,189.93,347.18,191.54Zm8.21-7.18c-1.08,1.49-2,1.1-3.2-.08A33,33,0,0,1,349,180.1c-2-2.86-4.11-5.71-5.89-8.74-3.51-6-7.22-11.82-10.77-17.77a39.63,39.63,0,0,0-2.4-4.08c-.87-1.13-2.56-2.61-2.77-4.1-.16-1.19,1-1.28,1.95-1.23a4.25,4.25,0,0,1,3.54,2.24c1.9,2.8,3.55,5.85,5.35,8.73,2,3.23,4,6.48,6.09,9.66s3.89,6.65,6.17,9.78c1.12,1.54,2.35,3,3.43,4.57C354.69,180.55,356.63,182.64,355.39,184.36Zm6-6c-1.34.14-2.28-2-2.94-2.89-.8-1.11-1.57-2.25-2.32-3.4-1.44-2.23-3-4.39-4.31-6.71-1.41-2.5-3-4.86-4.53-7.28-.48-.75-3.64-5.26-.73-5,.92.07,1.73,1.3,2.24,1.94.81,1,1.58,2,2.31,3.07q2.56,3.71,5.09,7.43c1.57,2.33,3.12,4.66,4.62,7C361.59,173.68,364.89,178,361.4,178.33Zm7.2-8.06c-1.64,1.76-3.91-2.85-4.54-3.79-1.48-2.22-3-4.43-4.43-6.66s-2.94-4.44-4.4-6.66c-.84-1.27-3.79-4.17-1.89-5.61,1.59-1.21,3.69,2.56,4.42,3.54,1.53,2.06,3,4.14,4.49,6.24s2.91,4.29,4.36,6.44C367.68,165.37,370.37,168.37,368.6,170.27Zm1.8-12.69c-1.2-1.46-2.28-3-3.4-4.55s-2.22-3-3.32-4.48c-.59-.8-2.81-2.78-1.86-3.83s2.63-.11,3.36.58a26.35,26.35,0,0,1,3,4c1.78,2.54,5,5.82,4.85,9.14C372.9,160.43,370.85,158.13,370.4,157.58Z"/><path d="M240.05,93.48c-.78-1.2-2.06-2.7-3.21-2.09-.67.37-1.13,1.24-1.81,1.67s-1.56.45-2.07,1.08c-1.25,1.52.63,3,1.78,3.75,1.73,1.08,1.88,2.7,2,4.62.05,1.42-.27,4.74,1.08,5.72.86.63,1.44-.19,1.75-.94a4.34,4.34,0,0,0,0-2.78c-.33-1.77-.74-4.41.42-6a13.75,13.75,0,0,0,1.53-2.09,2.89,2.89,0,0,0,.77-1.62C242.32,93.6,241.09,93.6,240.05,93.48Zm-.77,3.31c-1,.27-3.43.68-4.29-.18s-.12-1.77.76-2.12a7.59,7.59,0,0,1,4-.13C240.81,94.93,240.33,96.51,239.28,96.79Z"/></svg>